<?xml version="1.0" encoding="UTF-8"?>
<svg version="1.1" xmlns="http://www.w3.org/2000/svg" width="1024" height="1024">
<path d="M0 0 C337.92 0 675.84 0 1024 0 C1024 337.92 1024 675.84 1024 1024 C686.08 1024 348.16 1024 0 1024 C0 686.08 0 348.16 0 0 Z " fill="#EBEAE7" transform="translate(0,0)"/>
<path d="M0 0 C1.58854246 -0.00107555 3.17708453 -0.00301827 4.765625 -0.00575256 C9.05195535 -0.0105676 13.33818027 -0.00298124 17.62449789 0.00720048 C22.15079701 0.01606622 26.67709363 0.0142217 31.20339966 0.01383972 C38.82083871 0.01477448 46.4382378 0.02342255 54.05566406 0.03710938 C62.78037974 0.05273099 71.50505141 0.05811079 80.22978008 0.05737382 C89.60677611 0.05668948 98.98375584 0.06369015 108.36074686 0.07282043 C111.01644742 0.07492055 113.67214522 0.07565733 116.32784653 0.07605934 C133.15627627 0.08112441 149.97932315 0.14494384 166.80175781 0.62841797 C168.01669355 0.65862691 169.2316293 0.68883585 170.48338127 0.71996021 C183.44296149 1.15586181 193.14009896 4.05321464 202.76611328 12.96557617 C206.18887242 16.66088835 208.63835971 20.74832526 210.87548828 25.24291992 C211.38907929 26.27185238 211.90267031 27.30078484 212.43182468 28.36089706 C214.21532485 32.57664922 214.29782767 36.41629538 214.26316833 40.94512939 C214.27124664 42.22265268 214.27124664 42.22265268 214.27948815 43.52598453 C214.29374397 46.36699993 214.28666981 49.20754784 214.27954102 52.04858398 C214.28524594 54.09085971 214.29221067 56.13313226 214.30033875 58.17539978 C214.31827481 63.7148494 214.31710051 69.25414064 214.31139636 74.79361057 C214.30830419 79.42310307 214.31439752 84.05256516 214.32043511 88.68205333 C214.33448113 99.60845519 214.33291927 110.53477887 214.3215332 121.46118164 C214.31006058 132.71912869 214.3241132 143.97683728 214.35092968 155.23475289 C214.37311346 164.91143602 214.37971775 174.58804445 214.37385327 184.2647512 C214.37048787 190.03919161 214.37287078 195.8134793 214.39010429 201.58789825 C214.40561319 207.02168317 214.40157395 212.45511619 214.38279915 217.88888741 C214.37912375 219.87739306 214.38219097 221.865925 214.39268494 223.85440636 C214.45796825 237.25332801 213.91837478 248.42829322 204.92626953 259.17260742 C193.50044284 270.70725151 179.77777324 273.4160499 164.09026289 273.51933801 C161.50593903 273.52530789 158.92172863 273.5215607 156.33740234 273.51757812 C154.46703896 273.52193108 152.59667735 273.52711616 150.72631836 273.5330658 C145.66826033 273.54640602 140.61027726 273.54703989 135.55220509 273.5445025 C131.31801755 273.54342915 127.08384495 273.54832557 122.84966063 273.55310792 C112.85272452 273.56418645 102.85582599 273.56465018 92.85888672 273.55859375 C82.57402107 273.55255827 72.28929237 273.564858 62.00445008 273.58616382 C53.14974165 273.60382699 44.29507663 273.60977365 35.44035125 273.60652608 C30.16275414 273.60472018 24.88525467 273.60727951 19.60767365 273.62124062 C14.64009048 273.63389087 9.67271938 273.63180729 4.70513916 273.61882973 C2.89204585 273.61647978 1.07893729 273.61914118 -0.73413849 273.62745285 C-17.59650958 273.69912184 -32.31381118 272.47112173 -45.37451172 260.61791992 C-53.47992198 252.0850438 -56.27109158 242.35508482 -56.27841187 230.90184021 C-56.28279412 230.06482309 -56.28717637 229.22780597 -56.29169142 228.36542469 C-56.30504033 225.56213626 -56.31124951 222.75887924 -56.31738281 219.95556641 C-56.32528692 217.94476684 -56.33355606 215.93396868 -56.34216309 213.923172 C-56.36834947 207.32013294 -56.38368826 200.71708765 -56.39794922 194.11401367 C-56.40331046 191.83810993 -56.40868797 189.56220623 -56.41408157 187.28630257 C-56.43570612 177.81647891 -56.45444136 168.34665693 -56.46570396 158.87681484 C-56.48193415 145.32079666 -56.51509452 131.7650655 -56.57210481 118.2091555 C-56.61085288 108.66924332 -56.63034248 99.12940774 -56.63562453 89.58941895 C-56.63927152 83.89588683 -56.65122374 78.20266108 -56.68372726 72.5092144 C-56.71389302 67.14848261 -56.72008926 61.78824121 -56.70834351 56.42744255 C-56.70812348 54.46675281 -56.71636943 52.50603974 -56.73399734 50.54542923 C-56.86161089 35.52685968 -54.9702314 23.56117096 -44.12451172 12.24291992 C-41.59934072 9.97635077 -38.99054923 8.05567479 -36.12451172 6.24291992 C-35.50962891 5.85233398 -34.89474609 5.46174805 -34.26123047 5.05932617 C-23.95333085 -0.76687796 -11.47789207 -0.04558243 0 0 Z " fill="#EBEBE7" transform="translate(118.12451171875,369.757080078125)"/>
<path d="M0 0 C1.58854246 -0.00107555 3.17708453 -0.00301827 4.765625 -0.00575256 C9.05195535 -0.0105676 13.33818027 -0.00298124 17.62449789 0.00720048 C22.15079701 0.01606622 26.67709363 0.0142217 31.20339966 0.01383972 C38.82083871 0.01477448 46.4382378 0.02342255 54.05566406 0.03710938 C62.78037974 0.05273099 71.50505141 0.05811079 80.22978008 0.05737382 C89.60677611 0.05668948 98.98375584 0.06369015 108.36074686 0.07282043 C111.01644742 0.07492055 113.67214522 0.07565733 116.32784653 0.07605934 C133.15627627 0.08112441 149.97932315 0.14494384 166.80175781 0.62841797 C168.01669355 0.65862691 169.2316293 0.68883585 170.48338127 0.71996021 C183.44296149 1.15586181 193.14009896 4.05321464 202.76611328 12.96557617 C206.18887242 16.66088835 208.63835971 20.74832526 210.87548828 25.24291992 C211.38907929 26.27185238 211.90267031 27.30078484 212.43182468 28.36089706 C214.21532485 32.57664922 214.29782767 36.41629538 214.26316833 40.94512939 C214.27124664 42.22265268 214.27124664 42.22265268 214.27948815 43.52598453 C214.29374397 46.36699993 214.28666981 49.20754784 214.27954102 52.04858398 C214.28524594 54.09085971 214.29221067 56.13313226 214.30033875 58.17539978 C214.31827481 63.7148494 214.31710051 69.25414064 214.31139636 74.79361057 C214.30830419 79.42310307 214.31439752 84.05256516 214.32043511 88.68205333 C214.33448113 99.60845519 214.33291927 110.53477887 214.3215332 121.46118164 C214.31006058 132.71912869 214.3241132 143.97683728 214.35092968 155.23475289 C214.37311346 164.91143602 214.37971775 174.58804445 214.37385327 184.2647512 C214.37048787 190.03919161 214.37287078 195.8134793 214.39010429 201.58789825 C214.40561319 207.02168317 214.40157395 212.45511619 214.38279915 217.88888741 C214.37912375 219.87739306 214.38219097 221.865925 214.39268494 223.85440636 C214.45796825 237.25332801 213.91837478 248.42829322 204.92626953 259.17260742 C193.50044284 270.70725151 179.77777324 273.4160499 164.09026289 273.51933801 C161.50593903 273.52530789 158.92172863 273.5215607 156.33740234 273.51757812 C154.46703896 273.52193108 152.59667735 273.52711616 150.72631836 273.5330658 C145.66826033 273.54640602 140.61027726 273.54703989 135.55220509 273.5445025 C131.31801755 273.54342915 127.08384495 273.54832557 122.84966063 273.55310792 C112.85272452 273.56418645 102.85582599 273.56465018 92.85888672 273.55859375 C82.57402107 273.55255827 72.28929237 273.564858 62.00445008 273.58616382 C53.14974165 273.60382699 44.29507663 273.60977365 35.44035125 273.60652608 C30.16275414 273.60472018 24.88525467 273.60727951 19.60767365 273.62124062 C14.64009048 273.63389087 9.67271938 273.63180729 4.70513916 273.61882973 C2.89204585 273.61647978 1.07893729 273.61914118 -0.73413849 273.62745285 C-17.59650958 273.69912184 -32.31381118 272.47112173 -45.37451172 260.61791992 C-53.47992198 252.0850438 -56.27109158 242.35508482 -56.27841187 230.90184021 C-56.28279412 230.06482309 -56.28717637 229.22780597 -56.29169142 228.36542469 C-56.30504033 225.56213626 -56.31124951 222.75887924 -56.31738281 219.95556641 C-56.32528692 217.94476684 -56.33355606 215.93396868 -56.34216309 213.923172 C-56.36834947 207.32013294 -56.38368826 200.71708765 -56.39794922 194.11401367 C-56.40331046 191.83810993 -56.40868797 189.56220623 -56.41408157 187.28630257 C-56.43570612 177.81647891 -56.45444136 168.34665693 -56.46570396 158.87681484 C-56.48193415 145.32079666 -56.51509452 131.7650655 -56.57210481 118.2091555 C-56.61085288 108.66924332 -56.63034248 99.12940774 -56.63562453 89.58941895 C-56.63927152 83.89588683 -56.65122374 78.20266108 -56.68372726 72.5092144 C-56.71389302 67.14848261 -56.72008926 61.78824121 -56.70834351 56.42744255 C-56.70812348 54.46675281 -56.71636943 52.50603974 -56.73399734 50.54542923 C-56.86161089 35.52685968 -54.9702314 23.56117096 -44.12451172 12.24291992 C-41.59934072 9.97635077 -38.99054923 8.05567479 -36.12451172 6.24291992 C-35.50962891 5.85233398 -34.89474609 5.46174805 -34.26123047 5.05932617 C-23.95333085 -0.76687796 -11.47789207 -0.04558243 0 0 Z M-31.18310547 27.31323242 C-31.63814453 27.9912793 -32.09318359 28.66932617 -32.56201172 29.36791992 C-33.03509766 30.05112305 -33.50818359 30.73432617 -33.99560547 31.43823242 C-36.43693893 35.34098695 -36.27555234 38.67906559 -36.27841187 43.17422485 C-36.28279412 44.00333386 -36.28717637 44.83244286 -36.29169142 45.68667638 C-36.30510755 48.48097985 -36.31126463 51.27525176 -36.31738281 54.06958008 C-36.32528168 56.06672306 -36.33355049 58.06386461 -36.34216309 60.06100464 C-36.36841203 66.63464998 -36.38369534 73.20830178 -36.39794922 79.78198242 C-36.40330805 82.0434202 -36.40868556 84.30485793 -36.41408157 86.56629562 C-36.43571608 95.97338369 -36.45445264 105.38047002 -36.46570396 114.78757668 C-36.48194085 128.27530091 -36.51510602 141.76273693 -36.57210481 155.2503525 C-36.61080057 164.72984499 -36.63033635 174.20926038 -36.63562453 183.68882978 C-36.63927896 189.35209797 -36.65131006 195.01505897 -36.68372726 200.67824173 C-36.71380054 206.00855355 -36.72012216 211.3383722 -36.70834351 216.66875076 C-36.7081227 218.6230554 -36.71643358 220.57738286 -36.73399734 222.53160858 C-36.7567118 225.20490161 -36.74838387 227.87640983 -36.73251343 230.54971313 C-36.74639552 231.31879962 -36.7602776 232.0878861 -36.77458036 232.88027823 C-36.67207497 239.91285109 -33.66185023 244.77064137 -28.68701172 249.61791992 C-23.3175333 253.02295502 -18.17836331 253.53619032 -11.94670105 253.51034546 C-11.13938123 253.51487657 -10.3320614 253.51940768 -9.50027734 253.5240761 C-6.80359298 253.53670445 -4.10711099 253.53510075 -1.41040039 253.53344727 C0.5265987 253.5394335 2.46359541 253.54623926 4.40058899 253.55380249 C9.65688148 253.57146015 14.91310883 253.57615778 20.16942811 253.57743406 C23.45507308 253.57885636 26.74070153 253.58312746 30.02634239 253.5884285 C41.49372788 253.60692807 52.96106688 253.61509921 64.4284668 253.61352539 C75.10986943 253.61232405 85.79106997 253.63342527 96.47242147 253.66501272 C105.64968687 253.69118297 114.8268863 253.70189237 124.00418872 253.70061457 C129.4823703 253.70010516 134.96037227 253.70577718 140.43851662 253.72697067 C145.59238835 253.74636554 150.74590936 253.74646885 155.89979362 253.73193741 C157.78755329 253.72984977 159.67533498 253.73454752 161.56305695 253.74665833 C176.30196954 254.04997346 176.30196954 254.04997346 189.03173828 247.39135742 C189.47517578 246.80612305 189.91861328 246.22088867 190.37548828 245.61791992 C190.83955078 245.0275293 191.30361328 244.43713867 191.78173828 243.82885742 C194.35421233 240.09877005 194.02957405 236.61836902 194.03611755 232.23568726 C194.04120537 231.39841115 194.04629319 230.56113504 194.05153519 229.69848692 C194.06730411 226.87654833 194.07579646 224.05463542 194.08422852 221.23266602 C194.09376349 219.21581864 194.10365449 217.19897292 194.11387634 215.18212891 C194.14530584 208.54355826 194.16553466 201.90497492 194.18408203 195.26635742 C194.18902801 193.57314133 194.18902801 193.57314133 194.19407392 191.84571886 C194.22485921 181.2024775 194.25157148 170.55923336 194.2684927 159.91596031 C194.29040018 146.29505818 194.33236578 132.67455023 194.40193027 119.05380571 C194.44916318 109.48089797 194.47342545 99.9080966 194.48068959 90.33507597 C194.48564738 84.6158571 194.50074072 78.89708213 194.54043388 73.17798996 C194.57730004 67.79509236 194.58570969 62.4128922 194.57242775 57.02989197 C194.5724817 55.05622696 194.58277884 53.08253106 194.60417938 51.10898209 C195.2283812 38.35599811 195.2283812 38.35599811 189.47476292 27.53533363 C183.41300528 22.63667613 178.80447181 21.09385973 170.9757843 21.0957489 C170.16215508 21.09207221 169.34852586 21.08839553 168.51024121 21.08460742 C165.77431788 21.07356354 163.03843253 21.06972554 160.30249023 21.06591797 C158.34460835 21.05965383 156.38672765 21.05300707 154.42884827 21.04600525 C149.1022165 21.02859054 143.7755937 21.01804209 138.44894052 21.00979972 C135.12127988 21.00465029 131.79362203 20.99857452 128.46596336 20.99228859 C118.0552758 20.97323473 107.64459534 20.9590043 97.23389369 20.95067662 C85.2152029 20.94090411 73.19669627 20.91458493 61.17807037 20.87417573 C51.88963741 20.84401744 42.60125724 20.82920799 33.31277627 20.82589561 C27.76470695 20.82354472 22.21683433 20.81457907 16.66881752 20.78943443 C11.44770185 20.766154 6.22691241 20.76192048 1.00575829 20.77219582 C-0.90822561 20.7726913 -2.82222555 20.76636724 -4.73616028 20.75263977 C-7.35445951 20.7349145 -9.9715888 20.74202985 -12.58988953 20.75517273 C-13.34273009 20.74420348 -14.09557066 20.73323424 -14.87122458 20.72193259 C-21.24023879 20.79882497 -26.64057969 22.74484786 -31.18310547 27.31323242 Z " fill="#032F53" transform="translate(118.12451171875,369.757080078125)"/>
<path d="M0 0 C7.92 0 15.84 0 24 0 C25.10859375 3.12082031 26.2171875 6.24164063 27.359375 9.45703125 C28.44489003 12.51199736 29.53054398 15.56691406 30.61621094 18.62182617 C31.36505384 20.72919653 32.11375451 22.83661744 32.86230469 24.9440918 C33.94427822 27.99020794 35.02677966 31.03613605 36.109375 34.08203125 C36.43871033 35.00957718 36.76804565 35.93712311 37.10736084 36.89277649 C37.42739075 37.79287949 37.74742065 38.69298248 38.07714844 39.62036133 C38.5445343 40.93576401 38.5445343 40.93576401 39.0213623 42.27774048 C39.71506104 44.20739022 40.41971286 46.13311835 41.13195801 48.05599976 C41.49865601 49.04645294 41.865354 50.03690613 42.24316406 51.05737305 C42.57930725 51.95658981 42.91545044 52.85580658 43.26177979 53.78227234 C44 56 44 56 44 58 C44.66 58 45.32 58 46 58 C46.14767822 57.41549072 46.29535645 56.83098145 46.44750977 56.22875977 C48.6536152 47.81141231 51.37006891 39.58517298 54.13354492 31.33862305 C54.93662528 28.94011247 55.7332585 26.53952753 56.52929688 24.13867188 C63.85247046 2.14752954 63.85247046 2.14752954 66 0 C73.92 0 81.84 0 90 0 C90 32.34 90 64.68 90 98 C83.73 98 77.46 98 71 98 C70.97494385 96.30883057 70.9498877 94.61766113 70.92407227 92.87524414 C70.84031176 87.29920568 70.75204041 81.72325097 70.66066074 76.14733219 C70.60540198 72.76532878 70.55197744 69.38331676 70.50268555 66.0012207 C70.44599054 62.11660573 70.38142415 58.23214122 70.31640625 54.34765625 C70.29969376 53.12788589 70.28298126 51.90811554 70.26576233 50.65138245 C70.2358445 48.96975258 70.2358445 48.96975258 70.20532227 47.25415039 C70.18977798 46.26153702 70.1742337 45.26892365 70.15821838 44.24623108 C70.24881556 42.03025703 70.24881556 42.03025703 69 41 C63.69166212 54.48888391 58.63318923 68.05795586 53.67236328 81.67797852 C52.75527129 84.19373394 51.83486106 86.70825559 50.9140625 89.22265625 C50.63495026 89.9922316 50.35583801 90.76180695 50.06826782 91.55470276 C48.11319581 96.88680419 48.11319581 96.88680419 47 98 C45.33382885 98.04063832 43.66611905 98.042721 42 98 C41.58226318 96.91283691 41.16452637 95.82567383 40.73413086 94.70556641 C39.14839307 90.5789622 37.56217539 86.45254258 35.97583008 82.32617188 C35.29601653 80.55766563 34.61632434 78.78911274 33.93676758 77.02050781 C29.31902581 65.00275794 24.67577594 52.99529339 20 41 C19.67 41 19.34 41 19 41 C18.98969254 41.69935165 18.97938507 42.39870331 18.96876526 43.11924744 C18.87094968 49.69713663 18.76845843 56.2749342 18.66066074 62.85266781 C18.60540198 66.23467122 18.55197744 69.61668324 18.50268555 72.9987793 C18.44599054 76.88339427 18.38142415 80.76785878 18.31640625 84.65234375 C18.29133751 86.48199928 18.29133751 86.48199928 18.26576233 88.34861755 C18.24581711 89.46970413 18.22587189 90.59079071 18.20532227 91.74584961 C18.18977798 92.73846298 18.1742337 93.73107635 18.15821838 94.75376892 C18 97 18 97 17 98 C11.39 98 5.78 98 0 98 C0 65.66 0 33.32 0 0 Z " fill="#003054" transform="translate(704,399)"/>
<path d="M0 0 C0.9480249 -0.00475342 1.8960498 -0.00950684 2.87280273 -0.0144043 C3.77329346 -0.012229 4.67378418 -0.01005371 5.6015625 -0.0078125 C6.40158691 -0.00668457 7.20161133 -0.00555664 8.02587891 -0.00439453 C10.55217371 0.1347591 12.90839786 0.57413099 15.375 1.125 C15.39964513 7.2305471 15.41783371 13.33606551 15.42993164 19.44165039 C15.43497288 21.52043156 15.44180574 23.59920916 15.45043945 25.67797852 C15.46251422 28.65902586 15.46823024 31.64002649 15.47265625 34.62109375 C15.47781754 35.55650497 15.48297882 36.4919162 15.48829651 37.45567322 C15.48837204 38.31649002 15.48844757 39.17730682 15.48852539 40.06420898 C15.490746 40.82587875 15.49296661 41.58754852 15.49525452 42.37229919 C15.375 44.125 15.375 44.125 14.375 45.125 C11.6875 45.5 11.6875 45.5 8.375 45.125 C6.84224994 43.94350516 5.3103708 42.75263295 3.890625 41.4375 C1.19012099 39.09891921 -2.00191476 37.125 -5.625 37.125 C-6.9287111 38.45012878 -6.9287111 38.45012878 -8.25 40.1875 C-10.37477362 42.7681293 -12.5308868 44.99183764 -15.09765625 47.12890625 C-18.64325845 50.18595083 -21.9809513 53.41331395 -25.26953125 56.7421875 C-26.01919159 57.50017891 -26.01919159 57.50017891 -26.78399658 58.27348328 C-28.85371912 60.37049088 -30.91975674 62.47103529 -32.98071289 64.57666016 C-39.19954543 70.92095603 -45.47696276 76.86624868 -52.4519043 82.38720703 C-54.66524159 84.09149346 -54.66524159 84.09149346 -56.625 86.125 C-58.87109375 86.5546875 -58.87109375 86.5546875 -61.625 86.125 C-63.83087614 84.56756262 -65.70943448 83.05675119 -67.6875 81.25 C-68.83576195 80.24459113 -69.9842037 79.2393876 -71.1328125 78.234375 C-72.29752289 77.19864478 -73.46159168 76.16219258 -74.625 75.125 C-76.75677259 73.23312951 -78.90383163 71.36107488 -81.0625 69.5 C-81.98933594 68.68273437 -82.91617188 67.86546875 -83.87109375 67.0234375 C-87.04126313 64.83804414 -88.76378208 64.01040902 -92.625 64.125 C-94.96480177 65.74605947 -96.66412842 67.18492732 -98.625 69.1875 C-99.17824951 69.72463623 -99.73149902 70.26177246 -100.30151367 70.81518555 C-102.09530618 72.56672975 -103.86153766 74.34295483 -105.625 76.125 C-106.84977254 77.34944654 -108.07503457 78.57340364 -109.30078125 79.796875 C-111.11536812 81.61121944 -112.92766928 83.42757171 -114.7331543 85.25097656 C-118.28524505 88.83054868 -121.91890208 92.22879344 -125.76953125 95.48828125 C-128.78224698 98.14581365 -131.55124599 101.04326332 -134.37109375 103.90234375 C-137.65174112 107.13750554 -141.11108732 110.14727018 -144.625 113.125 C-147.80403494 111.69942379 -150.16158432 109.9476848 -152.75 107.625 C-153.43320313 107.0165625 -154.11640625 106.408125 -154.8203125 105.78125 C-156.11619988 104.59195076 -157.38126434 103.36873566 -158.625 102.125 C-158.30173213 98.74788242 -156.96538138 97.1059107 -154.5625 94.8125 C-153.923125 94.19890625 -153.28375 93.5853125 -152.625 92.953125 C-150.79960262 91.2845977 -148.94344044 89.66778538 -147.0625 88.0625 C-142.42763588 84.07814313 -138.17294721 79.72776504 -133.90014648 75.36303711 C-131.04095787 72.46145995 -128.15084766 69.68850898 -125.0390625 67.05859375 C-121.19601391 63.74616368 -117.67686004 60.17432726 -114.1484375 56.53515625 C-113.57007141 55.94181488 -112.99170532 55.34847351 -112.39581299 54.7371521 C-109.9799137 52.25820448 -107.565052 49.77891606 -105.17382812 47.27612305 C-103.40824263 45.43190343 -101.62418715 43.60737197 -99.8359375 41.78515625 C-99.30140961 41.21652359 -98.76688171 40.64789093 -98.21615601 40.06202698 C-95.65533219 37.48287467 -94.07824416 36.19593894 -90.44287109 35.62695312 C-87.60020365 36.12938265 -86.42807132 36.53021617 -84.328125 38.43359375 C-83.48568237 39.17730225 -83.48568237 39.17730225 -82.6262207 39.93603516 C-82.04831787 40.47276855 -81.47041504 41.00950195 -80.875 41.5625 C-80.26809326 42.10438965 -79.66118652 42.6462793 -79.03588867 43.20458984 C-77.21943873 44.83118282 -75.42123107 46.47614164 -73.625 48.125 C-72.61702097 49.0364137 -71.60799499 49.94667159 -70.59765625 50.85546875 C-68.92943939 52.35710889 -67.26703072 53.86525416 -65.61328125 55.3828125 C-63.53963048 57.27662781 -63.53963048 57.27662781 -60.625 59.125 C-53.98026706 58.67632028 -50.13489878 53.52719601 -45.625 49.125 C-44.51825928 48.04895508 -44.51825928 48.04895508 -43.38916016 46.95117188 C-40.85410337 44.47691626 -38.33118398 41.9909167 -35.8125 39.5 C-34.9879834 38.68869629 -34.1634668 37.87739258 -33.31396484 37.04150391 C-28.94042755 32.67331432 -24.77289168 28.47047644 -21.625 23.125 C-22.15206866 19.16270067 -24.21716635 16.75518375 -26.625 13.625 C-31.06161972 7.85739437 -31.06161972 7.85739437 -31.625 4.125 C-23.03588866 -1.84099353 -10.12299847 0.04262843 0 0 Z " fill="#012F53" transform="translate(269.625,424.875)"/>
<path d="M0 0 C0.91644287 0.00523682 1.83288574 0.01047363 2.77709961 0.01586914 C4.26113281 0.02070313 4.26113281 0.02070313 5.77514648 0.02563477 C6.81606445 0.03401367 7.85698242 0.04239258 8.92944336 0.05102539 C10.49662109 0.05779297 10.49662109 0.05779297 12.09545898 0.06469727 C14.68600996 0.07652627 17.27644895 0.0930085 19.86694336 0.11352539 C21.87884849 4.74614745 23.16963052 9.52469705 24.51928711 14.37915039 C27.96469646 26.60007603 31.68809037 38.7305713 35.42944336 50.86352539 C37.63521123 58.02582216 39.83501032 65.18986613 42.02203369 72.35791016 C42.82093141 74.96346057 43.63171513 77.56504023 44.44458008 80.16625977 C44.90745583 81.67457811 45.36989025 83.18303199 45.83178711 84.69165039 C46.04170792 85.35066345 46.25162872 86.00967651 46.46791077 86.68865967 C47.83556793 91.21342026 47.86694336 94.11608108 47.86694336 99.11352539 C41.59694336 99.11352539 35.32694336 99.11352539 28.86694336 99.11352539 C25.89694336 89.21352539 25.89694336 89.21352539 22.86694336 79.11352539 C13.29694336 78.78352539 3.72694336 78.45352539 -6.13305664 78.11352539 C-7.12305664 82.07352539 -8.11305664 86.03352539 -9.13305664 90.11352539 C-10.12305664 92.75352539 -11.11305664 95.39352539 -12.13305664 98.11352539 C-18.73305664 98.11352539 -25.33305664 98.11352539 -32.13305664 98.11352539 C-27.38222 77.92246969 -20.90534502 58.27093004 -14.29199219 38.62402344 C-10.34798681 26.86621087 -6.82136866 15.02654387 -3.71118164 3.01977539 C-2.91571807 0.39689552 -2.7792641 0.1479178 0 0 Z " fill="#032E52" transform="translate(836.133056640625,398.886474609375)"/>
<path d="M0 0 C7.2069532 4.292007 12.5064655 10.3943965 15.1875 18.4375 C15.1875 20.0875 15.1875 21.7375 15.1875 23.4375 C6.2775 24.4275 6.2775 24.4275 -2.8125 25.4375 C-4.1325 22.7975 -5.4525 20.1575 -6.8125 17.4375 C-9.08183066 15.09391721 -10.22470077 14.53473653 -13.43359375 14.00390625 C-17.73015648 13.99794708 -21.01988785 14.09558888 -25 15.8125 C-27.79855638 19.86558166 -27.64043564 23.67106681 -26.8125 28.4375 C-24.34488412 32.89819025 -21.36857889 34.3851154 -16.8125 36.4375 C-14.36904738 37.13753054 -11.90895173 37.78134201 -9.4375 38.375 C1.63753817 41.20441883 8.78677379 45.01546374 15.34765625 54.58984375 C17.70558855 58.8696213 17.91747537 62.87088958 17.875 67.6875 C17.86629883 68.94276489 17.86629883 68.94276489 17.85742188 70.22338867 C17.52964198 78.86356644 14.43078216 84.36293681 8.22265625 90.32421875 C1.27226412 96.00840083 -5.95446981 97.94854483 -14.8125 97.8125 C-15.56789063 97.82410156 -16.32328125 97.83570313 -17.1015625 97.84765625 C-26.05295846 97.80151503 -33.3288231 94.6011671 -39.8125 88.4375 C-44.61672506 82.42599559 -48.06752697 75.2091113 -47.8125 67.4375 C-41.38221459 66.11361771 -35.3830166 65.18955598 -28.8125 65.4375 C-28.57015625 66.26894531 -28.3278125 67.10039062 -28.078125 67.95703125 C-27.74296875 69.04371094 -27.4078125 70.13039063 -27.0625 71.25 C-26.73765625 72.32894531 -26.4128125 73.40789062 -26.078125 74.51953125 C-24.69994167 77.69700947 -23.85502777 78.84484106 -20.8125 80.4375 C-15.49872001 81.25298109 -9.60415082 80.95311668 -4.8125 78.4375 C-1.91035527 74.21619857 -2.04116598 68.3659184 -2.8125 63.4375 C-6.03093315 58.71042631 -10.41037982 56.85911057 -15.8125 55.4375 C-17.6223911 55.13005912 -19.43515022 54.83916941 -21.25 54.5625 C-31.31246966 52.82519516 -37.89138777 47.65200077 -43.8125 39.4375 C-47.68563501 33.10791359 -47.80075241 25.62932009 -46.8125 18.4375 C-44.3259823 10.30512446 -40.41905691 5.27768306 -33.27734375 0.7421875 C-23.40621505 -4.48278395 -10.17212616 -4.79214486 0 0 Z " fill="#032E52" transform="translate(531.8125,401.5625)"/>
<path d="M0 0 C7.78537323 4.88305211 13.56516809 12.26614281 16.25 21.0625 C16.25 22.0525 16.25 23.0425 16.25 24.0625 C14.20928485 24.40160994 12.16737379 24.73352704 10.125 25.0625 C8.98804688 25.248125 7.85109375 25.43375 6.6796875 25.625 C3.48862398 26.03206049 0.46182209 26.14059902 -2.75 26.0625 C-3.08773437 25.35222656 -3.42546875 24.64195312 -3.7734375 23.91015625 C-4.21945312 22.99105469 -4.66546875 22.07195312 -5.125 21.125 C-5.56585938 20.20847656 -6.00671875 19.29195313 -6.4609375 18.34765625 C-7.54199162 15.93346198 -7.54199162 15.93346198 -9.75 15.0625 C-11.87039826 14.88818154 -13.99793308 14.79540929 -16.125 14.75 C-17.26710938 14.71261719 -18.40921875 14.67523438 -19.5859375 14.63671875 C-22.81219354 14.80839755 -22.81219354 14.80839755 -25.109375 16.8359375 C-27.56001866 20.16181104 -27.80669365 23.00485429 -27.75 27.0625 C-27.00321937 30.71342751 -26.11237346 31.77797379 -23.16796875 34.08984375 C-19.2728501 36.33788366 -15.98898955 37.07554314 -11.625 37.875 C-1.49132359 40.03664656 7.0151527 43.48713213 13.375 52.0625 C18.30911589 60.03391837 19.60807122 68.17752472 17.5 77.3125 C13.62434945 85.83893122 7.08916128 93.20422165 -1.48046875 97.1796875 C-10.94848242 99.73616431 -23.81818449 99.91521308 -32.7109375 95.453125 C-39.07476536 91.11304316 -44.41897039 85.52718442 -46.75 78.0625 C-47.3085131 74.73051589 -47.61171062 71.43676087 -47.75 68.0625 C-41.60221129 66.4347167 -36.10987804 65.86059911 -29.75 66.0625 C-29.59144531 66.65417969 -29.43289063 67.24585938 -29.26953125 67.85546875 C-27.28452454 74.57817102 -24.66703059 78.11781294 -18.75 82.0625 C-14.71779811 82.43758855 -11.07851717 81.90635442 -7.640625 79.72265625 C-5.21037274 77.66899267 -3.18213017 75.92676035 -1.75 73.0625 C-1.39786268 68.7664247 -1.19426985 66.17396031 -3.125 62.3125 C-8.18647645 57.97409161 -14.25998983 56.23055378 -20.75 55.125 C-29.67943026 53.47347528 -36.35117161 49.54834549 -42.12109375 42.51953125 C-46.84740386 35.39039682 -47.89413891 27.08211374 -46.31640625 18.78125 C-43.92126689 10.09329106 -38.15459074 4.46120853 -30.546875 -0.02734375 C-22.50259004 -4.10194896 -8.0924854 -3.69688108 0 0 Z " fill="#022E51" transform="translate(420.75,400.9375)"/>
<path d="M0 0 C0.68146088 0.00187317 1.36292175 0.00374634 2.06503296 0.00567627 C3.50238961 0.01238894 4.93972824 0.02628807 6.37695312 0.046875 C8.58480673 0.078109 10.79194709 0.087854 13 0.09375 C23.79747322 0.16466072 23.79747322 0.16466072 24.9609375 1.328125 C25.05629992 4.49425163 25.08644386 7.63853128 25.07446289 10.80493164 C25.07460892 11.79994186 25.07475494 12.79495209 25.0749054 13.82011414 C25.07420581 17.12619162 25.06641129 20.43221354 25.05859375 23.73828125 C25.05672973 26.02371693 25.05530575 28.30915301 25.05430603 30.59458923 C25.05047957 36.62310887 25.0406482 42.65160459 25.02960205 48.68011475 C25.01939067 54.82645341 25.014809 60.97279593 25.00976562 67.11914062 C24.99902604 79.18881262 24.9819481 91.25846682 24.9609375 103.328125 C20.52763948 105.66250741 17.57530386 106.70521747 12.5390625 106.69140625 C11.34925781 106.69076172 10.15945313 106.69011719 8.93359375 106.68945312 C7.09087891 106.6652832 7.09087891 106.6652832 5.2109375 106.640625 C3.96699219 106.64384766 2.72304688 106.64707031 1.44140625 106.65039062 C-7.77193658 106.59525092 -7.77193658 106.59525092 -10.0390625 104.328125 C-10.29353809 102.51305485 -10.29353809 102.51305485 -10.29975891 100.27345276 C-10.30684372 99.42520935 -10.31392853 98.57696594 -10.32122803 97.70301819 C-10.31875061 96.77049728 -10.31627319 95.83797638 -10.3137207 94.87719727 C-10.31883163 93.89661346 -10.32394257 92.91602966 -10.32920837 91.9057312 C-10.34315196 88.65193645 -10.34214401 85.39835239 -10.33984375 82.14453125 C-10.34372808 79.89013082 -10.34806219 77.63573113 -10.35282898 75.3813324 C-10.36030147 70.65092601 -10.35999247 65.92059423 -10.35473633 61.19018555 C-10.34894056 55.11906825 -10.36587051 49.04825592 -10.389081 42.97718906 C-10.40379113 38.31986191 -10.40469375 33.66260865 -10.40157127 29.00526237 C-10.40208586 26.76649306 -10.40734924 24.52771975 -10.41738319 22.28897285 C-10.42967741 19.16192767 -10.42299798 16.03548238 -10.41137695 12.90844727 C-10.41902069 11.97795059 -10.42666443 11.04745392 -10.43453979 10.08876038 C-10.42752548 9.23769714 -10.42051117 8.38663391 -10.4132843 7.50978088 C-10.41345204 6.77033517 -10.41361979 6.03088945 -10.41379261 5.26903629 C-9.32150745 -0.38844506 -4.88928009 -0.03579178 0 0 Z " fill="#003054" transform="translate(258.0390625,490.671875)"/>
<path d="M0 0 C17.82 0 35.64 0 54 0 C54 5.28 54 10.56 54 16 C50.98786971 17.50606515 47.88717378 17.12160331 44.5859375 17.09765625 C43.85629791 17.0962413 43.12665833 17.09482635 42.37490845 17.09336853 C40.04156415 17.08776531 37.70831536 17.07521235 35.375 17.0625 C33.79427222 17.05748541 32.21354293 17.05292243 30.6328125 17.04882812 C26.75514182 17.03864517 22.87767798 17.01907055 19 17 C19 23.93 19 30.86 19 38 C29.89 38 40.78 38 52 38 C52 43.28 52 48.56 52 54 C51 55 51 55 47.94897461 55.11352539 C46.60008729 55.11336634 45.25119386 55.10767612 43.90234375 55.09765625 C42.83905602 55.09553383 42.83905602 55.09553383 41.75428772 55.09336853 C39.48198288 55.08775443 37.20977525 55.07519963 34.9375 55.0625 C33.40039204 55.05748681 31.86328255 55.05292359 30.32617188 55.04882812 C26.55071333 55.0386297 22.77546596 55.01905732 19 55 C19 62.92 19 70.84 19 79 C31.54 79 44.08 79 57 79 C57 83.95 57 88.9 57 94 C56 95 56 95 53.75376892 95.12025452 C52.76115555 95.11803391 51.76854218 95.11581329 50.74584961 95.11352539 C49.60901733 95.11340454 48.47218506 95.11328369 47.30090332 95.11315918 C46.09687866 95.10804321 44.892854 95.10292725 43.65234375 95.09765625 C42.55249146 95.09664917 41.45263916 95.09564209 40.31945801 95.09460449 C36.19212814 95.08935362 32.06481307 95.07539251 27.9375 95.0625 C18.718125 95.041875 9.49875 95.02125 0 95 C0 63.65 0 32.3 0 0 Z " fill="#043053" transform="translate(634,402)"/>
<path d="M0 0 C5.57674979 4.07079204 7.58770928 9.25930265 9.1015625 15.8515625 C9.67552009 21.23426277 9.59546939 26.64429974 9.51318359 32.05004883 C9.47647738 34.54484756 9.47216679 37.03816113 9.47265625 39.53320312 C9.46282851 41.14324182 9.45117299 42.75327062 9.4375 44.36328125 C9.43527435 45.0968132 9.43304871 45.83034515 9.43075562 46.58610535 C9.28319466 54.73520881 7.6899478 62.6407741 2.1015625 68.8515625 C-4.33967234 73.98714163 -11.22281678 74.62433472 -19.26171875 74.33984375 C-25.80398012 73.46145205 -30.62944237 71.06237827 -35.3359375 66.4765625 C-41.28806587 56.47698683 -41.13006179 46.49473815 -41.19360352 35.18041992 C-41.20511685 33.75811815 -41.22555896 32.33585937 -41.25512695 30.91381836 C-41.47550781 20.2678226 -41.10234701 10.1500197 -33.5859375 1.8515625 C-23.98773556 -6.57464847 -10.71959058 -6.4846906 0 0 Z " fill="#042E51" transform="translate(787.8984375,539.1484375)"/>
<path d="M0 0 C33.92736908 0 33.92736908 0 41.53125 7.19140625 C48.56598849 15.85386349 48.23272436 26.41643157 48.3125 37 C48.34150391 38.25167969 48.37050781 39.50335937 48.40039062 40.79296875 C48.46987656 51.10895714 47.42973661 62.85369885 39.83984375 70.63671875 C28.32841388 79.16641944 13.45405025 77 0 77 C0 51.59 0 26.18 0 0 Z " fill="#012D51" transform="translate(525,536)"/>
<path d="M0 0 C29 0 29 0 37 4 C42.82739799 9.82739799 44.19864827 15.35901218 44.375 23.375 C44.05955792 36.68928434 44.05955792 36.68928434 39.4296875 41.69921875 C38.87539063 42.21097656 38.32109375 42.72273437 37.75 43.25 C36.8425 44.1575 35.935 45.065 35 46 C35.31512346 49.54166602 36.54341965 52.63317692 37.8828125 55.90625 C38.42615234 57.26943359 38.42615234 57.26943359 38.98046875 58.66015625 C39.74458605 60.556106 40.51544836 62.44935102 41.29296875 64.33984375 C41.65261719 65.24863281 42.01226562 66.15742187 42.3828125 67.09375 C42.88385498 68.32641602 42.88385498 68.32641602 43.39501953 69.58398438 C44.0998369 72.39870297 43.75972553 74.22771154 43 77 C41.06440687 77.13504138 39.126128 77.23201129 37.1875 77.3125 C36.10855469 77.37050781 35.02960938 77.42851563 33.91796875 77.48828125 C31 77 31 77 29.375 75.1171875 C27.43275287 70.71402497 25.57943906 66.28895864 23.8125 61.8125 C23.44447266 60.89791016 23.07644531 59.98332031 22.69726562 59.04101562 C20 52.26032004 20 52.26032004 20 50 C17.69 50 15.38 50 13 50 C13 58.91 13 67.82 13 77 C8.71 77 4.42 77 0 77 C0 51.59 0 26.18 0 0 Z " fill="#012C50" transform="translate(424,536)"/>
<path d="M0 0 C8.57079169 -0.04513501 17.14149142 -0.08184917 25.71236992 -0.10362434 C29.69191773 -0.11407386 33.67138021 -0.12825422 37.65087891 -0.15087891 C41.48933886 -0.17256585 45.32771659 -0.18455982 49.16623306 -0.18975449 C50.63270487 -0.19345773 52.09917205 -0.200689 53.56560898 -0.21146011 C55.61529106 -0.22592019 57.66463082 -0.22798029 59.71435547 -0.22705078 C60.88239716 -0.231492 62.05043884 -0.23593323 63.25387573 -0.24050903 C66 0 66 0 68 2 C68.14497985 4.58064129 68.18677545 7.04943884 68.125 9.625 C68.11597656 10.33140625 68.10695313 11.0378125 68.09765625 11.765625 C68.07407603 13.51056098 68.03820461 15.25532295 68 17 C59.77199903 19.74266699 50.67307455 18 42 18 C42 43.41 42 68.82 42 95 C36.6251615 97.68741925 30.00925213 96 24 96 C24 70.26 24 44.52 24 18 C16.08 18 8.16 18 0 18 C0 12.06 0 6.12 0 0 Z " fill="#032F53" transform="translate(556,401)"/>
<path d="M0 0 C1.91923201 -0.11891607 3.84058844 -0.20388378 5.76220703 -0.27441406 C6.83181671 -0.32535217 7.90142639 -0.37629028 9.00344849 -0.42877197 C12 0 12 0 14.19419861 2.03601074 C16.00565208 4.68444513 17.45207841 7.37409347 18.875 10.25 C19.420354 11.2596582 19.96570801 12.26931641 20.52758789 13.30957031 C22.06697459 16.18432581 23.5430018 19.0828189 25 22 C25.64627854 23.26085624 26.29324804 24.52135899 26.94140625 25.78125 C27.84032462 27.56500447 28.71950418 29.35920764 29.55859375 31.171875 C31.80335307 35.57622662 34.45663887 39.76106479 37 44 C37.33 29.81 37.66 15.62 38 1 C41.96 1 45.92 1 50 1 C50.02312428 10.89189376 50.04091552 20.78378114 50.05181217 30.67569637 C50.05704082 35.2684264 50.06413812 39.861138 50.07543945 44.45385742 C50.086269 48.88233688 50.09227698 53.31079856 50.09487724 57.73929024 C50.09673137 59.43265628 50.10035175 61.12602129 50.10573006 62.81937981 C50.1129414 65.18291232 50.1139909 67.54637045 50.11352539 69.90991211 C50.11712067 70.61697296 50.12071594 71.32403381 50.12442017 72.05252075 C50.11405216 76.88594784 50.11405216 76.88594784 49 78 C47.31391034 78.07205511 45.62499341 78.08386068 43.9375 78.0625 C42.55884766 78.04896484 42.55884766 78.04896484 41.15234375 78.03515625 C40.08693359 78.01775391 40.08693359 78.01775391 39 78 C37.95654187 76.18853076 36.91546276 74.37569137 35.875 72.5625 C35.53170654 71.96574463 35.18841309 71.36898926 34.8347168 70.75415039 C32.35288573 66.4206179 29.92785885 62.05882082 27.52734375 57.6796875 C26.91584473 56.57036865 26.3043457 55.4610498 25.67431641 54.31811523 C24.44702649 52.08964901 23.22647822 49.8574547 22.01318359 47.62133789 C21.15007568 46.05887329 21.15007568 46.05887329 20.26953125 44.46484375 C19.76010986 43.532771 19.25068848 42.60069824 18.72583008 41.64038086 C16.79419195 38.68513027 14.56628921 36.41290683 12 34 C12.00523682 35.29736084 12.01047363 36.59472168 12.01586914 37.93139648 C12.03391469 42.72647415 12.04543037 47.5215488 12.05493164 52.31665039 C12.05997288 54.39543156 12.06680574 56.47420916 12.07543945 58.55297852 C12.08751422 61.53402586 12.09323024 64.51502649 12.09765625 67.49609375 C12.10281754 68.43150497 12.10797882 69.3669162 12.11329651 70.33067322 C12.11337204 71.19149002 12.11344757 72.05230682 12.11352539 72.93920898 C12.115746 73.70087875 12.11796661 74.46254852 12.12025452 75.24729919 C12 77 12 77 11 78 C9.33570949 78.09823937 7.66718069 78.12973631 6 78.125 C4.63875 78.12886719 4.63875 78.12886719 3.25 78.1328125 C1 78 1 78 0 77 C-0.09496708 74.59651714 -0.12558862 72.22189018 -0.11352539 69.81811523 C-0.11367142 69.06694427 -0.11381744 68.31577332 -0.1139679 67.5418396 C-0.11326863 65.04739541 -0.10547564 62.55302497 -0.09765625 60.05859375 C-0.09579212 58.33366436 -0.09436819 56.60873443 -0.09336853 54.88380432 C-0.08954297 50.33487497 -0.07971238 45.78597733 -0.06866455 41.23706055 C-0.05845124 36.59879994 -0.05387108 31.96053423 -0.04882812 27.32226562 C-0.03809014 18.21482978 -0.02101327 9.10741752 0 0 Z " fill="#063256" transform="translate(807,535)"/>
<path d="M0 0 C4.00186193 -0.02489435 8.00369328 -0.04295127 12.00561523 -0.05493164 C13.36434719 -0.05993113 14.72307385 -0.06673291 16.08178711 -0.07543945 C18.04538585 -0.08769842 20.00902541 -0.09273487 21.97265625 -0.09765625 C23.15093994 -0.10289307 24.32922363 -0.10812988 25.54321289 -0.11352539 C29 0 29 0 36 1 C36 24.1 36 47.2 36 71 C23.625 73.25 23.625 73.25 18.67578125 73.1953125 C17.62841797 73.18886719 16.58105469 73.18242188 15.50195312 73.17578125 C14.44943359 73.15902344 13.39691406 73.14226562 12.3125 73.125 C11.21744141 73.11597656 10.12238281 73.10695313 8.99414062 73.09765625 C6.32918646 73.07438154 3.66471866 73.04169135 1 73 C-0.1329943 69.37798176 -0.12042281 65.99169957 -0.11352539 62.21191406 C-0.11367142 61.53833359 -0.11381744 60.86475311 -0.1139679 60.17076111 C-0.11327324 57.95234924 -0.10550181 55.73402214 -0.09765625 53.515625 C-0.09579048 51.97434536 -0.09436733 50.43306512 -0.09336853 48.89178467 C-0.08955585 44.84102737 -0.07973624 40.79030609 -0.06866455 36.73956299 C-0.05842356 32.60372403 -0.05386515 28.46787924 -0.04882812 24.33203125 C-0.03811284 16.22133766 -0.02105143 8.11067332 0 0 Z " fill="#023055" transform="translate(180,524)"/>
<path d="M0 0 C30.96875 0 30.96875 0 37.6875 5 C43.57997158 12.64428746 45.19814893 21.53832904 44 31 C42.53838904 37.62481653 40.4117804 42.83607532 34.8359375 46.91796875 C27.93678038 50.98406774 22.28632509 50 14 50 C14 58.91 14 67.82 14 77 C9.38 77 4.76 77 0 77 C0 51.59 0 26.18 0 0 Z " fill="#042F52" transform="translate(372,536)"/>
<path d="M0 0 C7.81187463 3.11419327 11.41088795 7.95351029 15.01171875 15.19921875 C15.796875 17.50390625 15.796875 17.50390625 14.796875 20.50390625 C10.29867868 21.62845533 6.39911631 22.0152664 1.796875 21.50390625 C-0.515625 18.62890625 -0.515625 18.62890625 -2.203125 15.50390625 C-5.71565646 13.16221861 -7.06781856 13.00766948 -11.203125 13.50390625 C-14.1932893 14.91268721 -14.1932893 14.91268721 -16.203125 17.50390625 C-16.9634698 21.68580265 -16.74060344 23.65929727 -14.453125 27.25390625 C-10.47132494 30.01053706 -6.89227405 30.67369104 -2.2109375 31.703125 C4.81629643 33.57401196 9.70575218 37.60787631 13.796875 43.50390625 C16.51341226 50.40121363 17.48591696 58.11753492 14.76953125 65.171875 C11.025985 71.36272573 5.75752419 74.91896854 -1.0859375 77.10546875 C-7.6462584 78.34006789 -14.89351153 78.84409777 -20.765625 75.31640625 C-26.09450893 71.3197433 -28.99718304 66.79084082 -31.203125 60.50390625 C-31.390625 57.06640625 -31.390625 57.06640625 -31.203125 54.50390625 C-26.329864 52.91263735 -22.39521904 52.29198404 -17.203125 52.50390625 C-16.955625 53.76203125 -16.708125 55.02015625 -16.453125 56.31640625 C-15.77595599 58.91452407 -15.27897763 60.40378078 -13.640625 62.56640625 C-9.74713407 64.06390276 -6.18194968 63.59657591 -2.203125 62.50390625 C0.69522639 60.22035667 0.76238539 58.71467612 1.359375 55.06640625 C0.76417473 51.29680453 -0.01098576 49.80804136 -3.09375 47.5546875 C-6.66382673 45.77626039 -10.48879069 45.10034343 -14.36328125 44.23828125 C-21.83316869 42.30659096 -25.80190427 36.98153627 -30.015625 30.87890625 C-32.08977619 24.98395025 -32.28292281 18.93109059 -30.39453125 12.9375 C-24.60558747 1.09921012 -12.3740379 -2.7863525 0 0 Z " fill="#012D51" transform="translate(944.203125,535.49609375)"/>
<path d="M0 0 C11.88 0 23.76 0 36 0 C36 4.29 36 8.58 36 13 C33.70691037 14.14654482 32.20090344 14.19729117 29.6484375 14.31640625 C28.37226562 14.37924805 28.37226562 14.37924805 27.0703125 14.44335938 C26.18085937 14.48267578 25.29140625 14.52199219 24.375 14.5625 C23.02921875 14.62727539 23.02921875 14.62727539 21.65625 14.69335938 C19.43768761 14.79956715 17.21886435 14.90029959 15 15 C14.67 19.95 14.34 24.9 14 30 C20.93 30 27.86 30 35 30 C35 34.62 35 39.24 35 44 C28.07 44 21.14 44 14 44 C14 49.94 14 55.88 14 62 C22.25 62 30.5 62 39 62 C39 66.95 39 71.9 39 77 C26.13 77 13.26 77 0 77 C0 51.59 0 26.18 0 0 Z " fill="#063154" transform="translate(868,536)"/>
<path d="M0 0 C11.55 0 23.1 0 35 0 C35 4.29 35 8.58 35 13 C31.85309225 13.78672694 29.8062379 14.12004456 26.671875 14.09765625 C25.87265625 14.09443359 25.0734375 14.09121094 24.25 14.08789062 C23.425 14.07951172 22.6 14.07113281 21.75 14.0625 C20.90953125 14.05798828 20.0690625 14.05347656 19.203125 14.04882812 C17.13538599 14.03707961 15.06768376 14.01914522 13 14 C13 19.28 13 24.56 13 30 C19.93 30 26.86 30 34 30 C34 34.62 34 39.24 34 44 C27.07 44 20.14 44 13 44 C13 49.94 13 55.88 13 62 C15.58134766 61.98259766 15.58134766 61.98259766 18.21484375 61.96484375 C20.45572809 61.95546766 22.69661359 61.94636727 24.9375 61.9375 C26.07380859 61.92912109 27.21011719 61.92074219 28.38085938 61.91210938 C29.46044922 61.90888672 30.54003906 61.90566406 31.65234375 61.90234375 C33.15269165 61.89448853 33.15269165 61.89448853 34.68334961 61.88647461 C37 62 37 62 38 63 C38 67.62 38 72.24 38 77 C25.46 77 12.92 77 0 77 C0 51.59 0 26.18 0 0 Z " fill="#022C4F" transform="translate(478,536)"/>
<path d="M0 0 C6.21942221 3.70773247 11.80714196 7.89632093 14.25 14.9375 C14.7361355 17.61610658 15.01560663 20.21853688 15.25 22.9375 C13.12506859 22.96443575 11.00004088 22.98386628 8.875 23 C7.09996094 23.01740234 7.09996094 23.01740234 5.2890625 23.03515625 C2.25 22.9375 2.25 22.9375 0.25 21.9375 C-0.86330681 19.91963141 -1.7920387 17.84554034 -2.75 15.75 C-3.62144569 13.76548477 -3.62144569 13.76548477 -5.75 12.9375 C-10.82878925 12.41639029 -10.82878925 12.41639029 -15.125 14.8125 C-18.02414899 18.60369483 -17.91068283 21.63710369 -17.91796875 26.25390625 C-17.92129715 26.98439682 -17.92462555 27.71488739 -17.92805481 28.46751404 C-17.93312396 30.01845673 -17.93546314 31.56941036 -17.93530273 33.12036133 C-17.93746907 35.46649873 -17.95556794 37.81215023 -17.97460938 40.15820312 C-18.08078391 51.20571468 -18.08078391 51.20571468 -15.75 61.9375 C-12.19646071 63.1220131 -9.47986522 63.20391894 -5.75 62.9375 C-3.20949846 60.92391729 -1.94091282 58.64942006 -0.5625 55.75 C0.035625 54.491875 0.63375 53.23375 1.25 51.9375 C5.87 51.9375 10.49 51.9375 15.25 51.9375 C15.02578867 59.89700233 13.55571494 64.90379161 8.25 70.9375 C1.94173485 75.9583641 -3.66114535 77.47487457 -11.61328125 77.30859375 C-18.54949993 76.48799503 -23.87811645 73.49039407 -28.25 68.0625 C-32.66003826 61.93459799 -33.07271082 55.14039372 -33.12109375 47.85546875 C-33.13012222 47.00124832 -33.1391507 46.14702789 -33.14845276 45.266922 C-33.16289303 43.46761545 -33.17182642 41.66825714 -33.17553711 39.86889648 C-33.18742239 37.14280011 -33.23665773 34.41897854 -33.28710938 31.69335938 C-33.38238104 21.51888168 -33.33666682 12.82781453 -25.93530273 5.02416992 C-18.57057623 -1.90953391 -9.55401041 -2.70696962 0 0 Z " fill="#032D51" transform="translate(697.75,536.0625)"/>
<path d="M0 0 C4.52751544 3.57718547 8.54439068 7.84553146 9.97265625 13.55859375 C10.0491179 15.89067395 10.06408924 18.22705253 9.97265625 20.55859375 C5.54934561 21.02488711 1.37627427 21.2747161 -3.02734375 20.55859375 C-5.61355371 18.23736431 -6.68034927 15.70790478 -8.02734375 12.55859375 C-10.57465417 10.01128333 -12.47249654 10.20536231 -15.95703125 10 C-19.28277385 10.897323 -20.21487476 12.68223874 -22.02734375 15.55859375 C-22.59521488 18.51158452 -22.56495964 21.40262531 -22.5234375 24.40234375 C-22.52489273 25.2490564 -22.52634796 26.09576904 -22.52784729 26.96813965 C-22.52619171 28.75337169 -22.51466858 30.53861851 -22.49389648 32.32373047 C-22.46493745 35.04977301 -22.47329503 37.77386966 -22.48632812 40.5 C-22.48009019 42.23829066 -22.47169882 43.97657521 -22.4609375 45.71484375 C-22.46534096 46.93222229 -22.46534096 46.93222229 -22.46983337 48.17419434 C-22.39348603 52.77455382 -22.00086005 55.8186417 -19.02734375 59.55859375 C-15.8987388 61.12289623 -13.4713145 60.91486659 -10.02734375 60.55859375 C-6.55045354 57.27486411 -5.22020953 53.94432531 -3.02734375 49.55859375 C1.59265625 49.55859375 6.21265625 49.55859375 10.97265625 49.55859375 C10.54682398 57.36551871 8.06959349 64.05697463 2.16015625 69.43359375 C-4.27628798 73.72455657 -10.27652857 75.53238038 -18.02734375 74.55859375 C-24.33377443 73.13887526 -29.24780593 71.09871467 -33.32104492 65.91088867 C-38.54027649 57.46861405 -37.74572926 48.02540825 -37.62426758 38.44482422 C-37.58984409 35.43362364 -37.60367145 32.42534653 -37.62304688 29.4140625 C-37.61614993 27.48045639 -37.60647893 25.54685776 -37.59375 23.61328125 C-37.59870987 22.72349579 -37.60366974 21.83371033 -37.60877991 20.91696167 C-37.478115 13.91988712 -35.69163237 8.65434611 -31.09765625 3.31640625 C-21.98029231 -4.33632091 -10.54899115 -6.7582466 0 0 Z " fill="#032D51" transform="translate(646.02734375,538.44140625)"/>
<path d="M0 0 C2.97922593 -0.02683987 5.95821295 -0.04676037 8.9375 -0.0625 C9.78763672 -0.07087891 10.63777344 -0.07925781 11.51367188 -0.08789062 C12.32255859 -0.09111328 13.13144531 -0.09433594 13.96484375 -0.09765625 C14.7137085 -0.10289307 15.46257324 -0.10812988 16.23413086 -0.11352539 C18 0 18 0 19 1 C19.09526806 3.95246354 19.12552452 6.88148421 19.11352539 9.83422852 C19.11367142 10.76096375 19.11381744 11.68769897 19.1139679 12.64251709 C19.11326838 15.72133687 19.10547421 18.80009697 19.09765625 21.87890625 C19.09579221 24.00740018 19.09436824 26.13589453 19.09336853 28.26438904 C19.08954228 33.8786232 19.07971108 39.49283168 19.06866455 45.10705566 C19.05845273 50.83113253 19.0538714 56.55521353 19.04882812 62.27929688 C19.03808891 73.51954256 19.0210112 84.75976915 19 96 C16.02077407 96.02683987 13.04178705 96.04676037 10.0625 96.0625 C9.21236328 96.07087891 8.36222656 96.07925781 7.48632812 96.08789062 C6.67744141 96.09111328 5.86855469 96.09433594 5.03515625 96.09765625 C4.2862915 96.10289307 3.53742676 96.10812988 2.76586914 96.11352539 C1 96 1 96 0 95 C-0.09526806 92.04753646 -0.12552452 89.11851579 -0.11352539 86.16577148 C-0.11367142 85.23903625 -0.11381744 84.31230103 -0.1139679 83.35748291 C-0.11326838 80.27866313 -0.10547421 77.19990303 -0.09765625 74.12109375 C-0.09579221 71.99259982 -0.09436824 69.86410547 -0.09336853 67.73561096 C-0.08954228 62.1213768 -0.07971108 56.50716832 -0.06866455 50.89294434 C-0.05845273 45.16886747 -0.0538714 39.44478647 -0.04882812 33.72070312 C-0.03808891 22.48045744 -0.0210112 11.24023085 0 0 Z " fill="#012F52" transform="translate(452,401)"/>
<path d="M0 0 C0.98548828 0.00193359 1.97097656 0.00386719 2.98632812 0.00585938 C4.00533203 0.01810547 5.02433594 0.03035156 6.07421875 0.04296875 C7.58532227 0.04393555 7.58532227 0.04393555 9.12695312 0.04492188 C24.66728784 0.13603784 24.66728784 0.13603784 26.76171875 2.23046875 C26.84941996 4.41902116 26.86511084 6.61051424 26.8515625 8.80078125 C26.84777084 9.47013702 26.84397919 10.1394928 26.84007263 10.82913208 C26.78219806 18.25771976 26.57072293 25.68091014 26.32421875 33.10546875 C26.28440882 34.47395553 26.24469495 35.84244511 26.20507812 37.2109375 C26.14223633 39.13486328 26.14223633 39.13486328 26.078125 41.09765625 C26.04146729 42.25378418 26.00480957 43.40991211 25.96704102 44.60107422 C25.76171875 47.23046875 25.76171875 47.23046875 24.76171875 48.23046875 C19.09160851 49.29361442 13.5192483 49.41367209 7.76171875 49.41796875 C6.89804688 49.43021484 6.034375 49.44246094 5.14453125 49.45507812 C-0.04465411 49.46690757 -4.34122286 48.98220905 -9.23828125 47.23046875 C-10.23828125 46.23046875 -10.23828125 46.23046875 -10.35853577 44.43980408 C-10.35631516 43.66036942 -10.35409454 42.88093475 -10.35180664 42.07788086 C-10.35169334 40.75662453 -10.35169334 40.75662453 -10.35157776 39.40867615 C-10.34383583 37.97274864 -10.34383583 37.97274864 -10.3359375 36.5078125 C-10.33452255 35.53260147 -10.3331076 34.55739044 -10.33164978 33.55262756 C-10.32603258 30.42437732 -10.31347718 27.29619752 -10.30078125 24.16796875 C-10.29576847 22.05273541 -10.29120518 19.93750094 -10.28710938 17.82226562 C-10.27605756 12.62497579 -10.25930271 7.4277273 -10.23828125 2.23046875 C-6.67351502 0.61332511 -3.90679486 -0.01810838 0 0 Z " fill="#003055" transform="translate(122.23828125,548.76953125)"/>
<path d="M0 0 C4.62 0 9.24 0 14 0 C14 25.08 14 50.16 14 76 C9.38 76 4.76 76 0 76 C0 50.92 0 25.84 0 0 Z " fill="#012B4F" transform="translate(584,536)"/>
<path d="M0 0 C3.55202788 2.16210393 5.54866659 4.12951096 7 8 C7.20392707 10.72011525 7.30409526 13.33488988 7.30078125 16.0546875 C7.30506638 16.83385529 7.3093515 17.61302307 7.31376648 18.415802 C7.31949977 20.06153392 7.32001741 21.70729117 7.31567383 23.35302734 C7.31251951 25.85949408 7.3359645 28.36477332 7.36132812 30.87109375 C7.36360193 32.47395685 7.36430424 34.07682311 7.36328125 35.6796875 C7.372491 36.42362762 7.38170074 37.16756775 7.39118958 37.93405151 C7.34037325 43.705094 6.11963069 47.88036931 2 52 C-1.71231934 52.56790715 -5.28528389 52.53603407 -9 52 C-12.41311667 49.47429367 -13.66637768 48.00086696 -15 44 C-15.1206029 41.41160595 -15.18807753 38.85093519 -15.203125 36.26171875 C-15.20882507 35.50333206 -15.21452515 34.74494537 -15.22039795 33.96357727 C-15.22983856 32.35895173 -15.23637821 30.75430688 -15.24023438 29.1496582 C-15.24992327 26.70684545 -15.2809474 24.26488039 -15.3125 21.82226562 C-15.31903227 20.26042164 -15.32428186 18.69857166 -15.328125 17.13671875 C-15.3404718 16.41151535 -15.3528186 15.68631195 -15.36553955 14.93913269 C-15.34125632 9.35125939 -14.06974038 5.29971153 -10.3125 1.125 C-6.89749126 -0.5363556 -3.67597099 -0.6650365 0 0 Z " fill="#EBEBE7" transform="translate(776,548)"/>
<path d="M0 0 C4.29 0 8.58 0 13 0 C13 25.08 13 50.16 13 76 C8.71 76 4.42 76 0 76 C0 50.92 0 25.84 0 0 Z " fill="#00294C" transform="translate(723,536)"/>
<path d="M0 0 C13.89473684 0 13.89473684 0 18 4 C22.02223555 9.81097011 21.47939551 16.02161802 21.4375 22.8125 C21.4674707 24.51889648 21.4674707 24.51889648 21.49804688 26.25976562 C21.49416134 32.99339997 21.17547459 39.42992748 17 45 C12 48 12 48 0 48 C0 32.16 0 16.32 0 0 Z " fill="#EAEAE6" transform="translate(538,550)"/>
<path d="M0 0 C-10.33845897 3.39299926 -20.18405413 3.42107625 -30.92382812 3.37231445 C-32.81071167 3.37474655 -34.69759392 3.37846991 -36.58447266 3.38337708 C-41.67484718 3.39272731 -46.76502747 3.38341306 -51.85538673 3.37004495 C-57.19196199 3.35867954 -62.52852841 3.36284154 -67.8651123 3.36479187 C-76.81570592 3.36567263 -85.76622346 3.3546351 -94.71679688 3.33618164 C-105.06663724 3.31496562 -115.41636666 3.31151642 -125.76622438 3.3177436 C-135.73376715 3.32343357 -145.70127085 3.31779926 -155.66880798 3.30657005 C-159.90796124 3.30192449 -164.14709061 3.30104996 -168.38624573 3.3031559 C-173.37021443 3.3050367 -178.35406983 3.29695101 -183.3380127 3.2810955 C-185.16820304 3.27684734 -186.99840486 3.27600566 -188.82859802 3.27878571 C-191.32274673 3.28200017 -193.81655523 3.27294472 -196.31066895 3.26069641 C-197.03789422 3.26447573 -197.76511949 3.26825506 -198.51438189 3.27214891 C-202.17279463 3.24027358 -204.88920058 3.01400531 -208 1 C-207.00424013 0.99576806 -206.00848026 0.99153612 -204.98254585 0.98717594 C-180.73620174 0.88391132 -156.48988698 0.77515383 -132.24359322 0.66066074 C-120.51819968 0.60541915 -108.7928031 0.55195224 -97.06738281 0.50268555 C-86.84567394 0.45973247 -76.62398664 0.41342681 -66.40231121 0.36312145 C-60.99171633 0.33660992 -55.58112549 0.3117595 -50.17050552 0.29092598 C-45.07343063 0.27124674 -39.97639647 0.2470703 -34.87935829 0.21950912 C-33.0129998 0.21019814 -31.14663241 0.2025019 -29.28026009 0.19658089 C-17.01442365 0.21983218 -17.01442365 0.21983218 -4.81124687 -0.88612461 C-3 -1 -3 -1 0 0 Z " fill="#112D52" transform="translate(305,640)"/>
<path d="M0 0 C1.45599609 0.00580078 1.45599609 0.00580078 2.94140625 0.01171875 C5.4375 0.3125 5.4375 0.3125 7.4375 2.3125 C1.0025 2.8075 1.0025 2.8075 -5.5625 3.3125 C-5.8925 36.6425 -6.2225 69.9725 -6.5625 104.3125 C9.08853708 104.37658146 9.08853708 104.37658146 24.4375 102.3125 C24.7675 68.9825 25.0975 35.6525 25.4375 1.3125 C25.7675 1.3125 26.0975 1.3125 26.4375 1.3125 C26.4375 34.9725 26.4375 68.6325 26.4375 103.3125 C21.06124912 106.00062544 19.55313071 106.69096712 14.015625 106.67578125 C12.82582031 106.67513672 11.63601563 106.67449219 10.41015625 106.67382812 C8.56744141 106.6496582 8.56744141 106.6496582 6.6875 106.625 C5.44355469 106.62822266 4.19960938 106.63144531 2.91796875 106.63476562 C-6.29537408 106.57962592 -6.29537408 106.57962592 -8.5625 104.3125 C-8.81697559 102.49742985 -8.81697559 102.49742985 -8.82319641 100.25782776 C-8.83028122 99.40958435 -8.83736603 98.56134094 -8.84466553 97.68739319 C-8.84218811 96.75487228 -8.83971069 95.82235138 -8.8371582 94.86157227 C-8.84226913 93.88098846 -8.84738007 92.90040466 -8.85264587 91.8901062 C-8.86658946 88.63631145 -8.86558151 85.38272739 -8.86328125 82.12890625 C-8.86716558 79.87450582 -8.87149969 77.62010613 -8.87626648 75.3657074 C-8.88373897 70.63530101 -8.88342997 65.90496923 -8.87817383 61.17456055 C-8.87237806 55.10344325 -8.88930801 49.03263092 -8.9125185 42.96156406 C-8.92722863 38.30423691 -8.92813125 33.64698365 -8.92500877 28.98963737 C-8.92552336 26.75086806 -8.93078674 24.51209475 -8.94082069 22.27334785 C-8.95311491 19.14630267 -8.94643548 16.01985738 -8.93481445 12.89282227 C-8.94245819 11.96232559 -8.95010193 11.03182892 -8.95797729 10.07313538 C-8.95096298 9.22207214 -8.94394867 8.37100891 -8.9367218 7.49415588 C-8.93688954 6.75471017 -8.93705729 6.01526445 -8.93723011 5.25341129 C-7.97292245 0.25878827 -4.48184281 -0.07758183 0 0 Z " fill="#1F3A54" transform="translate(256.5625,490.6875)"/>
<path d="M0 0 C7.92 0 15.84 0 24 0 C24 32.34 24 64.68 24 98 C17.73 98 11.46 98 5 98 C5 78.53 5 59.06 5 39 C5.33 39 5.66 39 6 39 C6 57.81 6 76.62 6 96 C11.28 96 16.56 96 22 96 C22 64.98 22 33.96 22 2 C15.07 2 8.14 2 1 2 C1 2.99 1 3.98 1 5 C0.34 5 -0.32 5 -1 5 C-0.67 3.35 -0.34 1.7 0 0 Z " fill="#041A35" transform="translate(770,399)"/>
<path d="M0 0 C9.69464829 -0.51190263 9.69464829 -0.51190263 14.1875 1.25 C17.16005633 5.76008547 16.67648358 10.75903251 16 16 C14.91348747 18.78982257 14.47566911 19.72019464 11.875 21.25 C8.08859719 22.23775725 4.91224563 22.19561228 1 22 C0 21 0 21 -0.11352539 18.95874023 C-0.10828857 18.08419189 -0.10305176 17.20964355 -0.09765625 16.30859375 C-0.09443359 15.36435547 -0.09121094 14.42011719 -0.08789062 13.44726562 C-0.07951172 12.45404297 -0.07113281 11.46082031 -0.0625 10.4375 C-0.05798828 9.44041016 -0.05347656 8.44332031 -0.04882812 7.41601562 C-0.03700007 4.94395151 -0.02051849 2.47200482 0 0 Z " fill="#ECEBE8" transform="translate(437,550)"/>
<path d="M0 0 C11 0 11 0 13.66015625 1.59375 C15.40523812 4.72777458 15.49903319 6.92287063 15.4375 10.5 C15.43621094 11.6240625 15.43492187 12.748125 15.43359375 13.90625 C14.96569935 17.24473974 14.36535598 18.64020956 12 21 C9 22 9 22 0 22 C0 14.74 0 7.48 0 0 Z " fill="#ECECE8" transform="translate(386,550)"/>
<path d="M0 0 C3.63 0 7.26 0 11 0 C11.02312428 9.89189376 11.04091552 19.78378114 11.05181217 29.67569637 C11.05704082 34.2684264 11.06413812 38.861138 11.07543945 43.45385742 C11.086269 47.88233688 11.09227698 52.31079856 11.09487724 56.73929024 C11.09673137 58.43265628 11.10035175 60.12602129 11.10573006 61.81937981 C11.1129414 64.18291232 11.1139909 66.54637045 11.11352539 68.90991211 C11.11712067 69.61697296 11.12071594 70.32403381 11.12442017 71.05252075 C11.11405216 75.88594784 11.11405216 75.88594784 10 77 C8.31391034 77.07205511 6.62499341 77.08386068 4.9375 77.0625 C3.55884766 77.04896484 3.55884766 77.04896484 2.15234375 77.03515625 C1.08693359 77.01775391 1.08693359 77.01775391 0 77 C-2.68917448 72.34595591 -5.34982736 67.6763106 -8 63 C-8.48662109 62.1440625 -8.97324219 61.288125 -9.47460938 60.40625 C-11.01283507 57.69242216 -12.53888578 54.97205342 -14.0625 52.25 C-14.56370361 51.36860352 -15.06490723 50.48720703 -15.58129883 49.57910156 C-16.04044678 48.7537793 -16.49959473 47.92845703 -16.97265625 47.078125 C-17.38781494 46.33981445 -17.80297363 45.60150391 -18.23071289 44.84082031 C-18.48457764 44.23334961 -18.73844238 43.62587891 -19 43 C-18.67 42.34 -18.34 41.68 -18 41 C-13.6863832 48.06744215 -9.59167469 55.2326602 -5.625 62.5 C-4.80708984 63.98113281 -4.80708984 63.98113281 -3.97265625 65.4921875 C-3.45832031 66.43320312 -2.94398438 67.37421875 -2.4140625 68.34375 C-1.9495166 69.19130859 -1.4849707 70.03886719 -1.00634766 70.91210938 C0 73 0 73 0 75 C2.97 75 5.94 75 9 75 C9 50.58 9 26.16 9 1 C6.36 1 3.72 1 1 1 C1 15.19 1 29.38 1 44 C0.67 44 0.34 44 0 44 C0 29.48 0 14.96 0 0 Z " fill="#051A3D" transform="translate(846,536)"/>
<path d="M0 0 C0.66 0 1.32 0 2 0 C3.17547401 3.91407837 4.33884223 7.83165293 5.5 11.75 C5.83386719 12.86117188 6.16773438 13.97234375 6.51171875 15.1171875 C6.82753906 16.18710937 7.14335938 17.25703125 7.46875 18.359375 C7.76201172 19.34389648 8.05527344 20.32841797 8.35742188 21.34277344 C9 24 9 24 9 28 C3.39 28 -2.22 28 -8 28 C-5.70489354 18.49170181 -3.28419509 9.22369685 0 0 Z " fill="#E7E8E5" transform="translate(844,428)"/>
<path d="M0 0 C3.66664954 -0.02932237 7.3332684 -0.04690637 11 -0.0625 C12.02996094 -0.07087891 13.05992187 -0.07925781 14.12109375 -0.08789062 C19.84354437 -0.10611499 25.3509659 0.04739165 31 1 C32 2 32 2 32.11303711 4.82080078 C32.1015564 6.67680908 32.1015564 6.67680908 32.08984375 8.5703125 C32.08605209 9.23966827 32.08226044 9.90902405 32.07835388 10.59866333 C32.02047931 18.02725101 31.80900418 25.45044139 31.5625 32.875 C31.52269007 34.24348678 31.4829762 35.61197636 31.44335938 36.98046875 C31.38051758 38.90439453 31.38051758 38.90439453 31.31640625 40.8671875 C31.27974854 42.02331543 31.24309082 43.17944336 31.20532227 44.37060547 C31 47 31 47 30 48 C24.32988976 49.06314567 18.75752955 49.18320334 13 49.1875 C12.13632813 49.19974609 11.27265625 49.21199219 10.3828125 49.22460938 C5.19362714 49.23643882 0.89705839 48.7517403 -4 47 C-5 46 -5 46 -5.12025452 44.20933533 C-5.11803391 43.42990067 -5.11581329 42.650466 -5.11352539 41.84741211 C-5.11341209 40.52615578 -5.11341209 40.52615578 -5.11329651 39.1782074 C-5.10555458 37.74227989 -5.10555458 37.74227989 -5.09765625 36.27734375 C-5.0962413 35.30213272 -5.09482635 34.32692169 -5.09336853 33.32215881 C-5.08775133 30.19390857 -5.07519593 27.06572877 -5.0625 23.9375 C-5.05748722 21.82226666 -5.05292393 19.70703219 -5.04882812 17.59179688 C-5.03777631 12.39450704 -5.02102146 7.19725855 -5 2 C-4.01 2.33 -3.02 2.66 -2 3 C-2.33 17.19 -2.66 31.38 -3 46 C7.89 46 18.78 46 30 46 C30 31.81 30 17.62 30 3 C19.77 2.67 9.54 2.34 -1 2 C-0.67 1.34 -0.34 0.68 0 0 Z " fill="#1D263D" transform="translate(117,549)"/>
<path d="M0 0 C7.59 0 15.18 0 23 0 C23 0.33 23 0.66 23 1 C15.74 1 8.48 1 1 1 C1 32.02 1 63.04 1 95 C5.95 95 10.9 95 16 95 C15.98839844 93.05222656 15.97679687 91.10445313 15.96484375 89.09765625 C15.8970505 72.37073112 16.14918749 55.71077239 17 39 C17.33 39 17.66 39 18 39 C18.02312883 46.41459942 18.04091785 53.82919111 18.05181217 61.24381924 C18.05703982 64.68640348 18.06413531 68.12896312 18.07543945 71.5715332 C18.08834235 75.52555043 18.09322918 79.47955756 18.09765625 83.43359375 C18.10281754 84.67523788 18.10797882 85.91688202 18.11329651 87.19615173 C18.11340981 88.90781273 18.11340981 88.90781273 18.11352539 90.65405273 C18.115746 91.664431 18.11796661 92.67480927 18.12025452 93.71580505 C18 96 18 96 17 97 C11.39 97 5.78 97 0 97 C0 64.99 0 32.98 0 0 Z " fill="#010F2D" transform="translate(704,400)"/>
<path d="M0 0 C3.3 0 6.6 0 10 0 C10 31.35 10 62.7 10 95 C6.04 95 2.08 95 -2 95 C-2 94.67 -2 94.34 -2 94 C2.455 93.505 2.455 93.505 7 93 C7.33 62.64 7.66 32.28 8 1 C5.36 1 2.72 1 0 1 C0 0.67 0 0.34 0 0 Z " fill="#223651" transform="translate(461,402)"/>
<path d="M0 0 C0.33 0 0.66 0 1 0 C1 5.28 1 10.56 1 16 C7.93 16 14.86 16 22 16 C22 20.62 22 25.24 22 30 C15.07 30 8.14 30 1 30 C1 35.94 1 41.88 1 48 C8.92 48 16.84 48 25 48 C25 49.65 25 51.3 25 53 C24.67 52.01 24.34 51.02 24 50 C23.30849854 50.00523682 22.61699707 50.01047363 21.90454102 50.01586914 C18.79053648 50.036575 15.67654639 50.04963963 12.5625 50.0625 C11.47388672 50.07087891 10.38527344 50.07925781 9.26367188 50.08789062 C8.22919922 50.09111328 7.19472656 50.09433594 6.12890625 50.09765625 C5.17056885 50.10289307 4.21223145 50.10812988 3.22485352 50.11352539 C1 50 1 50 0 49 C-0.09880797 47.52347336 -0.13079245 46.04232764 -0.1328125 44.5625 C-0.13410156 43.66789063 -0.13539063 42.77328125 -0.13671875 41.8515625 C-0.13091797 40.44003906 -0.13091797 40.44003906 -0.125 39 C-0.12886719 38.05898438 -0.13273438 37.11796875 -0.13671875 36.1484375 C-0.13542969 35.25382813 -0.13414062 34.35921875 -0.1328125 33.4375 C-0.13168457 32.61121094 -0.13055664 31.78492188 -0.12939453 30.93359375 C0 29 0 29 1 28 C2.4887186 27.91330568 3.981445 27.89296506 5.47265625 27.90234375 C6.37177734 27.90556641 7.27089844 27.90878906 8.19726562 27.91210938 C9.14279297 27.92048828 10.08832031 27.92886719 11.0625 27.9375 C12.01189453 27.94201172 12.96128906 27.94652344 13.93945312 27.95117188 C16.29299531 27.96299872 18.64650532 27.98093479 21 28 C21 24.7 21 21.4 21 18 C13.74 18 6.48 18 -1 18 C-1.020625 15.40125 -1.04125 12.8025 -1.0625 10.125 C-1.071604 9.30789551 -1.08070801 8.49079102 -1.09008789 7.64892578 C-1.11111111 2.22222222 -1.11111111 2.22222222 0 0 Z " fill="#051C3E" transform="translate(881,550)"/>
<path d="M0 0 C0.33 0 0.66 0 1 0 C1 25.08 1 50.16 1 76 C5.62 76 10.24 76 15 76 C15 67.09 15 58.18 15 49 C17.31 49 19.62 49 22 49 C22.33 50.98 22.66 52.96 23 55 C22.38125 54.34 21.7625 53.68 21.125 53 C19.24362573 50.7715451 19.24362573 50.7715451 17 51 C17.00785522 52.17357056 17.00785522 52.17357056 17.01586914 53.37084961 C17.03657106 56.89305833 17.04963838 60.4152543 17.0625 63.9375 C17.07087891 65.16919922 17.07925781 66.40089844 17.08789062 67.66992188 C17.09272461 69.4246582 17.09272461 69.4246582 17.09765625 71.21484375 C17.10551147 72.84087524 17.10551147 72.84087524 17.11352539 74.49975586 C17 77 17 77 16 78 C13.68925832 78.09932392 11.37537058 78.12969618 9.0625 78.125 C7.16177734 78.12886719 7.16177734 78.12886719 5.22265625 78.1328125 C2 78 2 78 0 77 C0 51.59 0 26.18 0 0 Z " fill="#F6F7F4" transform="translate(422,537)"/>
<path d="M0 0 C4.95 0 9.9 0 15 0 C15 0.33 15 0.66 15 1 C9.06 1.495 9.06 1.495 3 2 C2.67 24.77 2.34 47.54 2 71 C0 69 0 69 -0.24050903 66.13998413 C-0.23606781 64.91864777 -0.23162659 63.6973114 -0.22705078 62.43896484 C-0.22734283 61.76567642 -0.22763489 61.092388 -0.22793579 60.3986969 C-0.22654047 58.16931346 -0.21097016 55.94026268 -0.1953125 53.7109375 C-0.19158308 52.16680077 -0.18873577 50.62266167 -0.18673706 49.07852173 C-0.17909499 45.01124557 -0.15944168 40.94411189 -0.1373291 36.87689209 C-0.11688296 32.7278435 -0.10773799 28.57877193 -0.09765625 24.4296875 C-0.07619623 16.28638561 -0.04100951 8.14322693 0 0 Z " fill="#081D38" transform="translate(180,524)"/>
<path d="M0 0 C3.85122428 1.46080921 5.29978912 3.27487728 7 7 C7.53713196 11.24675026 7.47315197 15.47681572 7.44604492 19.75512695 C7.43756532 21.79677234 7.46626983 23.83558583 7.49804688 25.87695312 C7.49397801 34.11640179 7.18824945 40.27509851 1.52905273 46.65942383 C-2.22043415 49.94673541 -8.30713466 49.11669093 -13.046875 49.1328125 C-15 49 -15 49 -17 48 C-17 32.49 -17 16.98 -17 1 C-16.67 1 -16.34 1 -16 1 C-15.67 15.85 -15.34 30.7 -15 46 C-3.74316054 47.02899151 -3.74316054 47.02899151 2 43 C5.5686108 36.23059574 5.51715484 29.59776442 5.5 22.0625 C5.54253906 20.36963867 5.54253906 20.36963867 5.5859375 18.64257812 C5.60336758 11.15199932 4.36900696 6.12830537 0 0 Z " fill="#01163B" transform="translate(553,551)"/>
<path d="M0 0 C8.57077598 -0.04628427 17.14149997 -0.08184919 25.71236992 -0.10362434 C29.69191773 -0.11407386 33.67138021 -0.12825422 37.65087891 -0.15087891 C41.48933886 -0.17256585 45.32771659 -0.18455982 49.16623306 -0.18975449 C50.63270487 -0.19345773 52.09917205 -0.200689 53.56560898 -0.21146011 C55.61529106 -0.22592019 57.66463082 -0.22798029 59.71435547 -0.22705078 C60.88239716 -0.231492 62.05043884 -0.23593323 63.25387573 -0.24050903 C66 0 66 0 68 2 C68.14547834 4.58951445 68.18649052 7.04185391 68.125 9.625 C68.08375 12.05875 68.0425 14.4925 68 17 C59.75 17 51.5 17 43 17 C43 16.67 43 16.34 43 16 C50.59 16 58.18 16 66 16 C65.67 11.71 65.34 7.42 65 3 C51.55432199 1.83209074 38.11332242 1.66609982 24.625 1.4375 C22.23176467 1.39421946 19.83853541 1.35060245 17.4453125 1.30664062 C11.63027253 1.20054665 5.81517144 1.0986104 0 1 C0 0.67 0 0.34 0 0 Z " fill="#1F405D" transform="translate(556,401)"/>
<path d="M0 0 C0.87454834 0.00523682 1.74909668 0.01047363 2.65014648 0.01586914 C3.59438477 0.0190918 4.53862305 0.02231445 5.51147461 0.02563477 C6.50469727 0.03401367 7.49791992 0.04239258 8.52124023 0.05102539 C9.51833008 0.05553711 10.51541992 0.06004883 11.54272461 0.06469727 C14.01478872 0.07652532 16.48673541 0.0930069 18.95874023 0.11352539 C18.95874023 0.44352539 18.95874023 0.77352539 18.95874023 1.11352539 C12.25854234 1.81485452 5.6961667 2.223975 -1.04125977 2.11352539 C-1.04125977 6.07352539 -1.04125977 10.03352539 -1.04125977 14.11352539 C0.39088867 14.10192383 1.82303711 14.09032227 3.29858398 14.07836914 C5.1644681 14.06899284 7.03035363 14.05989247 8.89624023 14.05102539 C10.31453125 14.03845703 10.31453125 14.03845703 11.76147461 14.02563477 C13.11015625 14.02080078 13.11015625 14.02080078 14.48608398 14.01586914 C15.31873779 14.01063232 16.1513916 14.00539551 17.00927734 14 C18.95874023 14.11352539 18.95874023 14.11352539 19.95874023 15.11352539 C20.03145765 17.46666094 20.04244891 19.82186208 20.02124023 22.17602539 C20.0122168 23.46637695 20.00319336 24.75672852 19.99389648 26.08618164 C19.98229492 27.08520508 19.97069336 28.08422852 19.95874023 29.11352539 C19.62874023 29.11352539 19.29874023 29.11352539 18.95874023 29.11352539 C18.95874023 24.82352539 18.95874023 20.53352539 18.95874023 16.11352539 C11.69874023 16.11352539 4.43874023 16.11352539 -3.04125977 16.11352539 C-3.06188477 13.65915039 -3.08250977 11.20477539 -3.10375977 8.67602539 C-3.11286377 7.90202393 -3.12196777 7.12802246 -3.13134766 6.33056641 C-3.1385089 4.59130822 -3.09150679 2.85207235 -3.04125977 1.11352539 C-2.04125977 0.11352539 -2.04125977 0.11352539 0 0 Z " fill="#F7F7F4" transform="translate(885.041259765625,549.886474609375)"/>
<path d="M0 0 C6.93 0 13.86 0 21 0 C21 0.33 21 0.66 21 1 C11.595 1.495 11.595 1.495 2 2 C2 5.96 2 9.92 2 14 C4.02253906 13.98259766 4.02253906 13.98259766 6.0859375 13.96484375 C7.84895695 13.95546599 9.6119779 13.94636577 11.375 13.9375 C12.26445312 13.92912109 13.15390625 13.92074219 14.0703125 13.91210938 C15.34648437 13.90727539 15.34648437 13.90727539 16.6484375 13.90234375 C17.43395996 13.89710693 18.21948242 13.89187012 19.02880859 13.88647461 C21 14 21 14 23 15 C23 19.62 23 24.24 23 29 C22.67 29 22.34 29 22 29 C22 24.71 22 20.42 22 16 C14.74 16 7.48 16 0 16 C0 10.72 0 5.44 0 0 Z " fill="#F8F8F5" transform="translate(491,550)"/>
<path d="M0 0 C2.97 0 5.94 0 9 0 C9 0.66 9 1.32 9 2 C6.69 2 4.38 2 2 2 C2 16.52 2 31.04 2 46 C1.34 46 0.68 46 0 46 C0 30.82 0 15.64 0 0 Z " fill="#F9F9F4" transform="translate(538,550)"/>
<path d="M0 0 C0.66 0 1.32 0 2 0 C2.02464574 5.96313166 2.042834 11.92623395 2.05493164 17.8894043 C2.05997278 19.91968298 2.06680557 21.94995802 2.07543945 23.98022461 C2.08751467 26.89177347 2.09323034 29.8032745 2.09765625 32.71484375 C2.10281754 33.6283812 2.10797882 34.54191864 2.11329651 35.48313904 C2.11349168 37.65575427 2.06211805 39.82827296 2 42 C1 43 1 43 -1.875 43.25 C-5 43 -5 43 -6.875 41.625 C-8 40 -8 40 -8 38 C-7.401875 38.309375 -6.80375 38.61875 -6.1875 38.9375 C-3.91043228 40.10209704 -3.91043228 40.10209704 -1 41 C-0.67 27.47 -0.34 13.94 0 0 Z " fill="#001A41" transform="translate(283,427)"/>
<path d="M0 0 C7.26 0 14.52 0 22 0 C20 2 20 2 18.12060547 2.22705078 C17.37697754 2.21657715 16.63334961 2.20610352 15.8671875 2.1953125 C14.65869141 2.18564453 14.65869141 2.18564453 13.42578125 2.17578125 C12.58402344 2.15902344 11.74226563 2.14226563 10.875 2.125 C9.60076172 2.11146484 9.60076172 2.11146484 8.30078125 2.09765625 C6.20040116 2.07405647 4.10016556 2.03818483 2 2 C2 6.62 2 11.24 2 16 C9.26 16 16.52 16 24 16 C24 16.33 24 16.66 24 17 C16.08 17 8.16 17 0 17 C0 11.39 0 5.78 0 0 Z " fill="#F9F9F5" transform="translate(491,580)"/>
<path d="M0 0 C0.33 0 0.66 0 1 0 C1 5.28 1 10.56 1 16 C7.93 16 14.86 16 22 16 C22 20.29 22 24.58 22 29 C20.68 28.67 19.36 28.34 18 28 C18.99 28 19.98 28 21 28 C21 24.7 21 21.4 21 18 C13.74 18 6.48 18 -1 18 C-1.020625 15.40125 -1.04125 12.8025 -1.0625 10.125 C-1.071604 9.30789551 -1.08070801 8.49079102 -1.09008789 7.64892578 C-1.11111111 2.22222222 -1.11111111 2.22222222 0 0 Z " fill="#001233" transform="translate(881,550)"/>
<path d="M0 0 C0.33 0 0.66 0 1 0 C1 13.53 1 27.06 1 41 C-0.98 41.495 -0.98 41.495 -3 42 C-2.67 41.34 -2.34 40.68 -2 40 C-1.85513439 37.2656617 -1.76579563 34.55274853 -1.71875 31.81640625 C-1.70034058 31.0050975 -1.68193115 30.19378876 -1.66296387 29.3578949 C-1.60413628 26.75950455 -1.55136134 24.16104802 -1.5 21.5625 C-1.43235374 18.14699593 -1.35865526 14.73170149 -1.28125 11.31640625 C-1.26767456 10.52883438 -1.25409912 9.74126251 -1.2401123 8.92982483 C-1.16684984 5.71278622 -1.02416679 3.07250036 0 0 Z " fill="#F2F2EE" transform="translate(286,429)"/>
<path d="M0 0 C3.52094172 2.73350023 4.54770414 6.60382691 5.953125 10.66015625 C6.21760437 11.40583359 6.48208374 12.15151093 6.75457764 12.91978455 C7.30999603 14.49265016 7.86111259 16.06704062 8.40820312 17.64282227 C9.2495718 20.06126916 10.10812932 22.47311196 10.96875 24.88476562 C11.50624573 26.4136982 12.04273906 27.94298361 12.578125 29.47265625 C12.83636047 30.19663101 13.09459595 30.92060577 13.36065674 31.66651917 C13.96534559 33.42538959 14.49033608 35.21128077 15 37 C14.67 37.66 14.34 38.32 14 39 C11.81670561 36.29772893 10.42583418 33.90824824 9.31640625 30.62109375 C9.03031494 29.78707031 8.74422363 28.95304687 8.44946289 28.09375 C8.15676514 27.2171875 7.86406738 26.340625 7.5625 25.4375 C6.94858979 23.63388533 6.33401107 21.83049805 5.71875 20.02734375 C5.42484375 19.16093262 5.1309375 18.29452148 4.828125 17.40185547 C3.51695834 13.5990083 2.08378856 9.84357219 0.62890625 6.09375 C0 4 0 4 0 0 Z " fill="#19304C" transform="translate(733,418)"/>
<path d="M0 0 C0.33 0.99 0.66 1.98 1 3 C0.21625 3.556875 -0.5675 4.11375 -1.375 4.6875 C-4.86360927 7.76079864 -5.82396339 10.30136097 -6.30078125 14.90234375 C-6.33440638 23.61125218 -4.70145484 28.31553571 1 35 C0.67 35.66 0.34 36.32 0 37 C-6.40240967 29.99671694 -9.66481356 24.81300516 -9.421875 15.046875 C-8.64619943 9.44477367 -6.249613 4.80859175 -1.828125 1.25390625 C-1.22484375 0.84011719 -0.6215625 0.42632813 0 0 Z " fill="#112746" transform="translate(922,539)"/>
<path d="M0 0 C4.86680278 4.30731206 5.81637405 10.24979268 6.23583984 16.53222656 C6.29418522 20.40097394 6.26233516 24.25659767 6.1875 28.125 C6.17241432 29.47654746 6.15873283 30.82811135 6.14648438 32.1796875 C6.11140724 35.45355371 6.06225097 38.7265568 6 42 C5.67 42 5.34 42 5 42 C4.91697632 40.78268188 4.91697632 40.78268188 4.83227539 39.54077148 C4.57833607 35.83949351 4.32045405 32.13850025 4.0625 28.4375 C3.97548828 27.16068359 3.88847656 25.88386719 3.79882812 24.56835938 C3.71181641 23.32763672 3.62480469 22.08691406 3.53515625 20.80859375 C3.456604 19.67220459 3.37805176 18.53581543 3.29711914 17.36499023 C2.65831975 9.89662752 2.65831975 9.89662752 0 3 C0 2.01 0 1.02 0 0 Z " fill="#15304E" transform="translate(567,546)"/>
<path d="M0 0 C0.33 0 0.66 0 1 0 C1 2.97 1 5.94 1 9 C-2.94908214 10.85725751 -6.04767897 11.23651489 -10.39453125 11.1953125 C-11.59658203 11.18886719 -12.79863281 11.18242188 -14.03710938 11.17578125 C-15.28298828 11.15902344 -16.52886719 11.14226563 -17.8125 11.125 C-19.71032227 11.11146484 -19.71032227 11.11146484 -21.64648438 11.09765625 C-24.76451564 11.07412394 -27.88216097 11.04124545 -31 11 C-31 10.01 -31 9.02 -31 8 C-30.20303711 8.00523682 -29.40607422 8.01047363 -28.58496094 8.01586914 C-24.97331531 8.036659 -21.36168229 8.04966661 -17.75 8.0625 C-16.49574219 8.07087891 -15.24148438 8.07925781 -13.94921875 8.08789062 C-12.74394531 8.09111328 -11.53867187 8.09433594 -10.296875 8.09765625 C-9.18666992 8.10289307 -8.07646484 8.10812988 -6.93261719 8.11352539 C-4.42842621 8.01658493 -2.3818844 7.73230276 0 7 C0 4.69 0 2.38 0 0 Z " fill="#182D4A" transform="translate(281,586)"/>
<path d="M0 0 C7.52576964 0 12.49301546 4.1986232 18 9 C23.32908611 14.65295322 29.20119356 21.89813033 29.25 30 C29.12625 31.485 29.12625 31.485 29 33 C27.51325049 30.18096846 26.4540308 27.39021696 25.4375 24.375 C22.08471339 15.85438441 14.70361413 7.93795068 6.54296875 3.734375 C5.76566406 3.40953125 4.98835938 3.0846875 4.1875 2.75 C3.39730469 2.41484375 2.60710937 2.0796875 1.79296875 1.734375 C1.20128906 1.49203125 0.60960937 1.2496875 0 1 C0 0.67 0 0.34 0 0 Z " fill="#101A32" transform="translate(302,373)"/>
<path d="M0 0 C0.66 0 1.32 0 2 0 C2 8.25 2 16.5 2 25 C-2.29 25 -6.58 25 -11 25 C-10.67 24.34 -10.34 23.68 -10 23 C-6.7 23 -3.4 23 0 23 C0 15.41 0 7.82 0 0 Z " fill="#042349" transform="translate(435,588)"/>
<path d="M0 0 C4.44548316 0.51784302 6.74164882 2.06417639 10.125 4.9375 C11.07632813 5.741875 12.02765625 6.54625 13.0078125 7.375 C16.9549011 10.83772003 20.84000911 14.36012474 24.6875 17.93359375 C28.07711433 20.96248899 30.55787902 22.27965606 35 23 C33.02 23.99 33.02 23.99 31 25 C24.51355151 20.95172009 18.29559416 16.558496 13 11 C13 10.34 13 9.68 13 9 C12.46375 8.773125 11.9275 8.54625 11.375 8.3125 C8.24304744 6.58168411 5.72029283 4.31514283 3 2 C2.01 1.34 1.02 0.68 0 0 Z " fill="#0B1F40" transform="translate(179,462)"/>
<path d="M0 0 C2.21296595 2.21296595 2.94661556 4.02054227 4.1875 6.875 C6.07741728 10.62775838 7.65764701 13.50590898 11.62109375 15.39453125 C17.26450171 16.83086661 23.20272064 16.85077788 29 17 C26.281484 19.718516 24.67205652 19.36261605 20.875 19.4375 C14.5926272 19.34031412 10.6672639 18.20629956 6 14 C1.87874868 9.66184072 0 6.0051063 0 0 Z " fill="#0D2240" transform="translate(914,594)"/>
<path d="M0 0 C0.2475 1.258125 0.495 2.51625 0.75 3.8125 C1.43007238 6.448945 1.85546462 7.82766935 3.625 9.9375 C7.06429727 11.47613299 10.24815104 11.68734592 14 12 C12 14 12 14 9.25 14.375 C5.14445579 13.90128336 3.14808997 12.64725748 0 10 C-1.59381802 7.02970278 -2 5.37610023 -2 2 C-3.81325551 2.11351517 -5.62563357 2.24112961 -7.4375 2.375 C-8.44683594 2.44460938 -9.45617187 2.51421875 -10.49609375 2.5859375 C-11.32238281 2.72257813 -12.14867187 2.85921875 -13 3 C-13.33 3.66 -13.66 4.32 -14 5 C-14 4.01 -14 3.02 -14 2 C-9.126739 0.4087311 -5.19209404 -0.21192221 0 0 Z " fill="#0C2343" transform="translate(927,588)"/>
<path d="M0 0 C0 0.99 0 1.98 0 3 C-0.515625 3.45375 -1.03125 3.9075 -1.5625 4.375 C-2.2740625 5.179375 -2.2740625 5.179375 -3 6 C-2.45144575 11.3459105 0.00173013 16.35426765 2.00390625 21.29296875 C4.10745213 26.67764361 4.10745213 26.67764361 3 30 C0.06545064 24.19611348 -2.61035886 18.28693347 -4.875 12.1875 C-5.27332031 11.12595703 -5.27332031 11.12595703 -5.6796875 10.04296875 C-6.0987164 7.37038199 -5.43997507 6.24879223 -4 4 C-2.70529025 2.62913085 -1.37849103 1.28659163 0 0 Z " fill="#0D2545" transform="translate(462,576)"/>
<path d="M0 0 C7.92 0 15.84 0 24 0 C24.99 2.76375 25.98 5.5275 27 8.375 C27.31324219 9.24431152 27.62648438 10.11362305 27.94921875 11.00927734 C28.19285156 11.6945752 28.43648437 12.37987305 28.6875 13.0859375 C28.93886719 13.7876709 29.19023438 14.4894043 29.44921875 15.21240234 C30 17 30 17 30 19 C29.34 19 28.68 19 28 19 C27.34525592 17.31593731 26.70166594 15.62753664 26.0625 13.9375 C25.70285156 12.99777344 25.34320312 12.05804688 24.97265625 11.08984375 C24 8 24 8 23 1 C15.41 1 7.82 1 0 1 C0 0.67 0 0.34 0 0 Z " fill="#33455B" transform="translate(704,399)"/>
<path d="M0 0 C7.92 0 15.84 0 24 0 C24 0.66 24 1.32 24 2 C16.41 2 8.82 2 1 2 C1 2.99 1 3.98 1 5 C0.34 5 -0.32 5 -1 5 C-0.67 3.35 -0.34 1.7 0 0 Z " fill="#172136" transform="translate(770,399)"/>
<path d="M0 0 C0 0.66 0 1.32 0 2 C-0.90621094 2.00257813 -1.81242188 2.00515625 -2.74609375 2.0078125 C-10.86172483 2.26545158 -17.06691083 3.08163313 -23 9 C-23.33 9.99 -23.66 10.98 -24 12 C-24.66 12 -25.32 12 -26 12 C-25.27195589 7.63173533 -23.22906801 6.00596962 -19.875 3.328125 C-13.81924407 -0.96136878 -7.11216032 -0.2071503 0 0 Z " fill="#0A1E3D" transform="translate(639,535)"/>
<path d="M0 0 C-1.56435313 3.58881011 -3.7355077 6.25535918 -6.3125 9.1875 C-7.45138672 10.50814453 -7.45138672 10.50814453 -8.61328125 11.85546875 C-11.17874276 14.16060519 -12.61539787 14.69448724 -16 15 C-3.5 0 -3.5 0 0 0 Z " fill="#182F4E" transform="translate(143,495)"/>
<path d="M0 0 C0.639375 0.66 1.27875 1.32 1.9375 2 C2.95649708 3.00187108 3.977629 4.00157212 5 5 C5.64324219 5.65097656 6.28648438 6.30195312 6.94921875 6.97265625 C11.8270027 11.65778087 16.14010911 14.23644352 22.6171875 16.2109375 C25 17 25 17 28 19 C17.05945299 18.64707913 10.06845358 13.51728347 2.49609375 5.9296875 C0.9333089 3.91398067 0.40463505 2.49432568 0 0 Z " fill="#0C1A36" transform="translate(68,622)"/>
<path d="M0 0 C0.66 0.33 1.32 0.66 2 1 C0.88200014 2.33920838 -0.24461897 3.67122556 -1.375 5 C-2.31472656 6.11375 -2.31472656 6.11375 -3.2734375 7.25 C-4.12808594 8.11625 -4.12808594 8.11625 -5 9 C-5.66 9 -6.32 9 -7 9 C-7.33 10.32 -7.66 11.64 -8 13 C-8.66 13 -9.32 13 -10 13 C-10.66 14.98 -11.32 16.96 -12 19 C-13 16 -13 16 -12.03125 13.73046875 C-8.60674972 8.04335221 -5.29158612 4.02160545 0 0 Z " fill="#0F1E38" transform="translate(78,379)"/>
<path d="M0 0 C0.66 0.33 1.32 0.66 2 1 C2.33 3.31 2.66 5.62 3 8 C-2.61 8 -8.22 8 -14 8 C-13.67 6.68 -13.34 5.36 -13 4 C-12.34 4 -11.68 4 -11 4 C-11 4.66 -11 5.32 -11 6 C-7.04 6 -3.08 6 1 6 C0.67 4.02 0.34 2.04 0 0 Z " fill="#F1F1EF" transform="translate(850,448)"/>
<path d="M0 0 C4.21817196 3.47854728 4.12468186 7.81542335 5 13 C0.71 13 -3.58 13 -8 13 C-8.33 12.34 -8.66 11.68 -9 11 C-5.04 11 -1.08 11 3 11 C2.2575 9.1128125 2.2575 9.1128125 1.5 7.1875 C0.43891831 4.49058403 0 2.95274099 0 0 Z " fill="#0D2441" transform="translate(708,546)"/>
<path d="M0 0 C6.06355613 0.37897226 10.67309089 4.45494316 14.625 8.77734375 C16.71113668 11.48576552 17.94807291 13.51188532 18.3125 16.9375 C18.209375 17.618125 18.10625 18.29875 18 19 C16.22293791 16.33440687 15.12451727 13.9719385 14 11 C13.34 11 12.68 11 12 11 C11.9175 10.38125 11.835 9.7625 11.75 9.125 C11.21402521 6.89696204 11.21402521 6.89696204 9.375 6 C8.59125 5.67 7.8075 5.34 7 5 C5.7430424 4.30408785 4.49339686 3.59486134 3.25 2.875 C2.1775 2.25625 1.105 1.6375 0 1 C0 0.67 0 0.34 0 0 Z " fill="#0A1732" transform="translate(527,401)"/>
<path d="M0 0 C0.33 0 0.66 0 1 0 C1 4.95 1 9.9 1 15 C8.21610428 14.38885395 8.21610428 14.38885395 15 12 C14 15 14 15 11.9375 16.1875 C8.1105426 17.24602013 4.9685152 17.19842576 1 17 C0 16 0 16 -0.09765625 12.40234375 C-0.0909822 10.91403133 -0.07902183 9.42573568 -0.0625 7.9375 C-0.05798828 7.17888672 -0.05347656 6.42027344 -0.04882812 5.63867188 C-0.0370068 3.75908129 -0.01907078 1.87953101 0 0 Z " fill="#E2E6E4" transform="translate(437,555)"/>
<path d="M0 0 C3.63 0 7.26 0 11 0 C11.33 0.66 11.66 1.32 12 2 C8.7 2 5.4 2 2 2 C2 7.94 2 13.88 2 20 C1.67 20 1.34 20 1 20 C0.67 13.4 0.34 6.8 0 0 Z " fill="#F3F5F1" transform="translate(437,550)"/>
<path d="M0 0 C4.85836439 2.02000225 6.67308551 5.45075144 9 10 C9.875 12.9375 9.875 12.9375 10 15 C9 16 9 16 5.4375 16.0625 C4.303125 16.041875 3.16875 16.02125 2 16 C5 14 5 14 8 14 C7.23570339 12.55901389 6.46327445 11.12233946 5.6875 9.6875 C5.25824219 8.88699219 4.82898438 8.08648438 4.38671875 7.26171875 C3.10716154 4.97749619 3.10716154 4.97749619 1.33203125 3.33203125 C0.89246094 2.89246094 0.45289063 2.45289063 0 2 C0 1.34 0 0.68 0 0 Z " fill="#0E203C" transform="translate(950,540)"/>
<path d="M0 0 C4.62 0 9.24 0 14 0 C14 1.65 14 3.3 14 5 C13.01 5 12.02 5 11 5 C11 4.01 11 3.02 11 2 C7.37 2.33 3.74 2.66 0 3 C0 2.01 0 1.02 0 0 Z " fill="#092444" transform="translate(643,588)"/>
<path d="M0 0 C4.62 0 9.24 0 14 0 C14 1.98 14 3.96 14 6 C13.01 6.495 13.01 6.495 12 7 C12 5.35 12 3.7 12 2 C6.06 2.495 6.06 2.495 0 3 C0 2.01 0 1.02 0 0 Z " fill="#051E3E" transform="translate(699,588)"/>
<path d="M0 0 C0.33 1.32 0.66 2.64 1 4 C-2.75 7 -2.75 7 -5 7 C-5.309375 7.94875 -5.61875 8.8975 -5.9375 9.875 C-7 13 -7 13 -8 15 C-8.66 15 -9.32 15 -10 15 C-7.9667557 8.27465346 -5.73122496 4.18224524 0 0 Z " fill="#15213A" transform="translate(496,404)"/>
<path d="M0 0 C0 0.99 0 1.98 0 3 C-0.7425 3.53625 -1.485 4.0725 -2.25 4.625 C-5.96836858 7.83631832 -7.2719322 11.4819233 -9 16 C-9.66 16 -10.32 16 -11 16 C-10.84207033 9.68281329 -7.32493138 6.19272824 -3 2 C-2.01 1.34 -1.02 0.68 0 0 Z " fill="#0B1830" transform="translate(387,403)"/>
<path d="M0 0 C2 3 2 3 3.3125 6.375 C5.74292666 11.59591653 9.34903816 14.72710092 14 18 C9.26247012 17.58198266 6.10967047 15.48497552 3 12 C0.79585224 7.88559084 -0.4255673 4.6812403 0 0 Z " fill="#0B1F3F" transform="translate(749,593)"/>
<path d="M0 0 C7.02952752 0.4535179 12.5849443 2.12059087 19 5 C18.34 5.66 17.68 6.32 17 7 C16.360625 6.71125 15.72125 6.4225 15.0625 6.125 C11.75843979 4.9112636 8.54484196 4.26812069 5.0859375 3.66015625 C2.68455273 2.90016744 1.61970554 1.89309533 0 0 Z " fill="#102341" transform="translate(924,576)"/>
<path d="M0 0 C4.97030879 4.80997625 4.97030879 4.80997625 5.09765625 9.9140625 C5.09100226 11.48440463 5.07906939 13.05473119 5.0625 14.625 C5.05798828 15.42679687 5.05347656 16.22859375 5.04882812 17.0546875 C5.03703168 19.03649006 5.01909605 21.01825433 5 23 C4.67 23 4.34 23 4 23 C3.92652344 21.67935547 3.92652344 21.67935547 3.8515625 20.33203125 C3.77679687 19.17058594 3.70203125 18.00914062 3.625 16.8125 C3.55539062 15.66394531 3.48578125 14.51539063 3.4140625 13.33203125 C3.02217063 10.17841078 2.28069539 7.88156463 1 5 C0.63128912 3.34080104 0.28718326 1.6752357 0 0 Z " fill="#09122D" transform="translate(544,454)"/>
<path d="M0 0 C2.76683076 2.38953566 3.88205053 4.53050164 5 8 C5.1953125 11.33203125 5.1953125 11.33203125 5.125 14.8125 C5.10695313 15.97394531 5.08890625 17.13539063 5.0703125 18.33203125 C5.04710937 19.21246094 5.02390625 20.09289062 5 21 C4.67 21 4.34 21 4 21 C3.87882813 20.03578125 3.75765625 19.0715625 3.6328125 18.078125 C3.46523438 16.81484375 3.29765625 15.5515625 3.125 14.25 C2.96257813 12.99703125 2.80015625 11.7440625 2.6328125 10.453125 C2.08532603 7.46560624 1.40327911 5.61788204 0 3 C0 2.01 0 1.02 0 0 Z " fill="#0A1D3D" transform="translate(567,546)"/>
<path d="M0 0 C3.375 2 3.375 2 6 4 C5.34 4.66 4.68 5.32 4 6 C3.67 5.505 3.34 5.01 3 4.5 C0.28702791 2.46527093 -1.75336327 2.68041684 -5.0625 2.69921875 C-7.32191109 2.91091707 -7.32191109 2.91091707 -10 5 C-10 4.01 -10 3.02 -10 2 C-6.57286781 -0.10900443 -3.99128926 -0.47895471 0 0 Z " fill="#182F4F" transform="translate(635,546)"/>
<path d="M0 0 C0.69480469 0.14308594 1.38960938 0.28617187 2.10546875 0.43359375 C5.16693345 1.03266579 8.23455833 1.55514698 11.3125 2.0625 C12.38113281 2.23910156 13.44976562 2.41570312 14.55078125 2.59765625 C15.35902344 2.73042969 16.16726563 2.86320312 17 3 C16.67 3.66 16.34 4.32 16 5 C13.89535207 4.69075786 11.7912947 4.3774944 9.6875 4.0625 C8.51574219 3.88847656 7.34398437 3.71445312 6.13671875 3.53515625 C3 3 3 3 0 2 C0 1.34 0 0.68 0 0 Z " fill="#172D4B" transform="translate(392,452)"/>
<path d="M0 0 C3.05906926 2.51066469 3.75191278 4.90059933 4.6875 8.6875 C5.06455078 10.17830078 5.06455078 10.17830078 5.44921875 11.69921875 C5.63097656 12.45847656 5.81273437 13.21773438 6 14 C5.01 14.495 5.01 14.495 4 15 C3.32532438 13.25307205 2.66055844 11.50231475 2 9.75 C1.62875 8.77546875 1.2575 7.8009375 0.875 6.796875 C0 4 0 4 0 0 Z " fill="#0C203F" transform="translate(733,418)"/>
<path d="M0 0 C6.93 0.495 6.93 0.495 14 1 C13.67 1.66 13.34 2.32 13 3 C9.04 3 5.08 3 1 3 C0.67 2.01 0.34 1.02 0 0 Z " fill="#132E4C" transform="translate(454,610)"/>
<path d="M0 0 C5.29158974 1.40071493 7.77478044 4.85487245 11 9 C8 9 8 9 5.95703125 7.28515625 C5.24933594 6.55167969 4.54164063 5.81820313 3.8125 5.0625 C3.09707031 4.33160156 2.38164063 3.60070312 1.64453125 2.84765625 C0 1 0 1 0 0 Z " fill="#0F2342" transform="translate(534,445)"/>
<path d="M0 0 C1.57554035 2.88628401 2.46276373 5.53342384 3.125 8.75 C3.29257812 9.54921875 3.46015625 10.3484375 3.6328125 11.171875 C3.81457031 12.07679688 3.81457031 12.07679688 4 13 C3.01 13.495 3.01 13.495 2 14 C-0.3992233 9.35150485 -0.19957409 5.08913926 0 0 Z " fill="#1A3350" transform="translate(862,421)"/>
<path d="M0 0 C0 0.99 0 1.98 0 3 C-0.515625 3.4125 -1.03125 3.825 -1.5625 4.25 C-3.42337175 6.10050364 -3.42337175 6.10050364 -2.6875 9.6875 C-2.460625 10.780625 -2.23375 11.87375 -2 13 C-2.99 12.67 -3.98 12.34 -5 12 C-5.875 9.375 -5.875 9.375 -6 6 C-4.28397113 3.65564056 -2.24331907 1.8336695 0 0 Z " fill="#071F40" transform="translate(462,576)"/>
<path d="M0 0 C0.33 0.99 0.66 1.98 1 3 C-3.77941176 7.93872549 -3.77941176 7.93872549 -6.9453125 8.09765625 C-8.96354167 8.06510417 -10.98177083 8.03255208 -13 8 C-13 7.67 -13 7.34 -13 7 C-12.39671875 6.91363281 -11.7934375 6.82726562 -11.171875 6.73828125 C-5.71717733 5.78960711 -5.71717733 5.78960711 -1.4375 2.375 C-0.963125 1.59125 -0.48875 0.8075 0 0 Z " fill="#04173B" transform="translate(782,594)"/>
<path d="M0 0 C3.09537351 1.06737018 3.98455997 1.97518567 5.75 4.8125 C6.94728978 7.86558893 7.28472808 9.77308179 7 13 C5.05193851 10.07790776 3.54304955 7.15039284 2 4 C1.608125 3.21625 1.21625 2.4325 0.8125 1.625 C0.544375 1.08875 0.27625 0.5525 0 0 Z " fill="#0C2040" transform="translate(952,574)"/>
<path d="M0 0 C0.66 0.66 1.32 1.32 2 2 C-0.97 4.31 -3.94 6.62 -7 9 C-7 6 -7 6 -5.46875 4.39453125 C-4.49421875 3.61142578 -4.49421875 3.61142578 -3.5 2.8125 C-2.8503125 2.28269531 -2.200625 1.75289063 -1.53125 1.20703125 C-1.0259375 0.80871094 -0.520625 0.41039062 0 0 Z " fill="#EFF2EE" transform="translate(226,499)"/>
<path d="M0 0 C2.99220268 1.36370299 5.29026529 2.94908083 7.75 5.125 C8.67039062 5.93324219 8.67039062 5.93324219 9.609375 6.7578125 C10.06828125 7.16773438 10.5271875 7.57765625 11 8 C7.43770549 8 6.58890321 7.23890991 3.8125 5.125 C3.09707031 4.59132813 2.38164062 4.05765625 1.64453125 3.5078125 C1.10183594 3.01023437 0.55914062 2.51265625 0 2 C0 1.34 0 0.68 0 0 Z " fill="#112645" transform="translate(492,488)"/>
<path d="M0 0 C2 2 2 2 3.375 4.3125 C5.04924213 7.08143891 6.93777085 9.51110275 9 12 C5.40800699 11.00222417 4.06608707 10.08216231 1.6875 7.125 C0 4 0 4 0 0 Z " fill="#102241" transform="translate(611,597)"/>
<path d="M0 0 C0.33 0.99 0.66 1.98 1 3 C-0.77442409 5.99816485 -2.53540571 8.53540571 -5 11 C-5.99 11 -6.98 11 -8 11 C-8 10.34 -8 9.68 -8 9 C-6.8553125 8.38125 -6.8553125 8.38125 -5.6875 7.75 C-2.40698115 5.61384819 -1.50066356 3.55420317 0 0 Z " fill="#0D2242" transform="translate(558,588)"/>
<path d="M0 0 C0.66 0.33 1.32 0.66 2 1 C2.63019694 11.15317287 2.63019694 11.15317287 0 14.6875 C-0.66 15.120625 -1.32 15.55375 -2 16 C-1.49396008 13.83125748 -1.00016187 12.00032373 0 10 C0.06996014 8.29297265 0.08440154 6.58331997 0.0625 4.875 C0.05347656 3.96492188 0.04445313 3.05484375 0.03515625 2.1171875 C0.02355469 1.41851562 0.01195312 0.71984375 0 0 Z " fill="#071A3B" transform="translate(419,464)"/>
<path d="M0 0 C0.66 0 1.32 0 2 0 C0.4169423 4.2742558 -2.50568404 6.26531794 -6 9 C-6 8.01 -6 7.02 -6 6 C-5.34 6 -4.68 6 -4 6 C-3.34 4.68 -2.68 3.36 -2 2 C-1.34 2 -0.68 2 0 2 C0 1.34 0 0.68 0 0 Z " fill="#D5D9D9" transform="translate(222,473)"/>
<path d="M0 0 C0.33 0 0.66 0 1 0 C1 5.28 1 10.56 1 16 C-0.32 16.33 -1.64 16.66 -3 17 C-2.01 15.515 -2.01 15.515 -1 14 C-0.70547416 11.61322924 -0.5071783 9.21373906 -0.375 6.8125 C-0.30023438 5.54019531 -0.22546875 4.26789063 -0.1484375 2.95703125 C-0.09945313 1.98121094 -0.05046875 1.00539063 0 0 Z " fill="#F9FAF5" transform="translate(286,454)"/>
<path d="M0 0 C0.33 0 0.66 0 1 0 C1.33730842 1.43657245 1.66969591 2.87430093 2 4.3125 C2.185625 5.11300781 2.37125 5.91351563 2.5625 6.73828125 C3 9 3 9 3 12 C0.98913629 10.60113829 0.1044224 9.44446456 -0.45703125 7.0546875 C-0.72695989 5.04641841 -0.86954037 3.02212425 -1 1 C-0.67 0.67 -0.34 0.34 0 0 Z " fill="#DEE3E2" transform="translate(393,422)"/>
<path d="M0 0 C0.66 0.99 1.32 1.98 2 3 C0.75 4.5625 0.75 4.5625 -1 6 C-3.1875 5.6875 -3.1875 5.6875 -5 5 C-3.35 3.35 -1.7 1.7 0 0 Z " fill="#DBE2E2" transform="translate(256,469)"/>
<path d="M0 0 C0.99 0.33 1.98 0.66 3 1 C-0.08559304 3.26881841 -1.42209376 4.05451946 -5.3125 3.6875 C-6.199375 3.460625 -7.08625 3.23375 -8 3 C-8 2.34 -8 1.68 -8 1 C-6.865625 1.020625 -5.73125 1.04125 -4.5625 1.0625 C-1.18424326 1.41577477 -1.18424326 1.41577477 0 0 Z " fill="#F1F1EE" transform="translate(214,509)"/>
<path d="M0 0 C0.99 0 1.98 0 3 0 C1.95125002 2.62187494 1.35068687 3.79371361 -1.125 5.25 C-1.74375 5.4975 -2.3625 5.745 -3 6 C-2.42655063 3.13275314 -2.1385485 2.1385485 0 0 Z " fill="#0B2847" transform="translate(168,469)"/>
<path d="M0 0 C3.94139078 1.66751148 6.7892812 4.22710649 10 7 C9.34 7.66 8.68 8.32 8 9 C6.66368764 7.6905332 5.33102075 6.37734515 4 5.0625 C3.2575 4.33160156 2.515 3.60070312 1.75 2.84765625 C0 1 0 1 0 0 Z " fill="#F1F3F0" transform="translate(191,468)"/>
<path d="M0 0 C0.598125 0.309375 1.19625 0.61875 1.8125 0.9375 C4.08956772 2.10209704 4.08956772 2.10209704 7 3 C7.99 3.33 8.98 3.66 10 4 C9 5 9 5 6.125 5.25 C3 5 3 5 1.125 3.625 C0 2 0 2 0 0 Z " fill="#0F203E" transform="translate(275,465)"/>
<path d="M0 0 C0.33 0 0.66 0 1 0 C0.25 7.75 0.25 7.75 -2 10 C-3.39195915 5.82412255 -1.82323219 3.86525224 0 0 Z " fill="#142540" transform="translate(760,427)"/>
<path d="M0 0 C2 1 2 1 2.8515625 3.28515625 C3.10679687 4.20167969 3.36203125 5.11820312 3.625 6.0625 C3.88539063 6.98160156 4.14578125 7.90070313 4.4140625 8.84765625 C4.60742188 9.55792969 4.80078125 10.26820313 5 11 C1.87729874 8.48169253 1.05476902 7.2738451 0.25 3.25 C0.1675 2.1775 0.085 1.105 0 0 Z " fill="#10213F" transform="translate(743,446)"/>
<path d="M0 0 C1.27118864 0.79109602 2.54193623 1.58290078 3.8125 2.375 C4.52019531 2.81585938 5.22789062 3.25671875 5.95703125 3.7109375 C7.65432039 4.78188476 9.33014358 5.88676239 11 7 C6.15833214 6.54961229 3.50331713 5.40027839 0 2 C0 1.34 0 0.68 0 0 Z " fill="#081D3E" transform="translate(393,432)"/>
<path d="M0 0 C0.66 0 1.32 0 2 0 C2.33 1.65 2.66 3.3 3 5 C2.34 5 1.68 5 1 5 C0.34 5.99 -0.32 6.98 -1 8 C-2.2077558 4.37673261 -1.54311128 3.35853631 0 0 Z " fill="#E2E1DF" transform="translate(844,428)"/>
<path d="M0 0 C-1.39332574 3.36720387 -2.9789286 4.9859524 -6 7 C-6 4 -6 4 -4.125 1.8125 C-2 0 -2 0 0 0 Z " fill="#203956" transform="translate(155,508)"/>
</svg>
