<?xml version="1.0" encoding="UTF-8"?>
<svg version="1.1" xmlns="http://www.w3.org/2000/svg" width="260" height="269">
<path d="M0 0 C2.9480682 -0.00205789 5.8961303 -0.00581621 8.84419632 -0.00990677 C13.51809677 -0.01578996 18.19196396 -0.01589487 22.86586571 -0.011446 C24.58367327 -0.01041752 26.30148263 -0.01094613 28.01928902 -0.01320457 C55.73162054 -0.04339176 55.73162054 -0.04339176 61.45647049 5.12293625 C66.42851199 10.31233475 67.5798539 13.96028215 67.60364151 21.11150742 C67.6073182 21.82713138 67.61099489 22.54275534 67.61478299 23.28006488 C67.62581908 25.68432025 67.62966355 28.08853239 67.63347244 30.4928093 C67.6397372 32.21424115 67.64638401 33.93567166 67.65338516 35.65710068 C67.67442805 41.31627587 67.68478833 46.97545134 67.69475174 52.634655 C67.69879933 54.58313448 67.70291625 56.53161381 67.70710182 58.480093 C67.72615465 67.63496283 67.74038502 76.78982459 67.74871379 85.94471043 C67.75848444 96.50995963 67.78479911 107.07499922 67.82521468 117.64017457 C67.85538493 125.80759791 67.87018357 133.9749612 67.8734948 142.14243919 C67.87584443 147.01982375 67.88479335 151.89698441 67.90995598 156.77430916 C67.93325731 161.36508212 67.93746165 165.95548409 67.9271946 170.54630089 C67.92669961 172.22807805 67.93300903 173.9098736 67.94675064 175.5915947 C68.06891372 191.43291307 68.06891372 191.43291307 63.45647049 198.12293625 C60.95647049 200.49793625 60.95647049 200.49793625 58.45647049 202.12293625 C57.85834549 202.53543625 57.26022049 202.94793625 56.64397049 203.37293625 C53.23602861 204.54137347 50.04513651 204.24255845 46.45647049 204.12293625 C46.12647049 204.78293625 45.79647049 205.44293625 45.45647049 206.12293625 C45.45647049 205.46293625 45.45647049 204.80293625 45.45647049 204.12293625 C44.69609482 204.19358292 43.93571915 204.26422958 43.15230179 204.33701706 C32.0580484 205.25704608 21.01141888 205.26871146 9.88615799 205.25574875 C7.83066674 205.25642374 5.77517558 205.2573954 3.7196846 205.25864792 C-0.55816544 205.26011237 -4.83599443 205.25800871 -9.11384201 205.25330734 C-14.59700862 205.24757449 -20.08012666 205.25091929 -25.56329155 205.25687981 C-29.79427585 205.26048859 -34.02524857 205.25934599 -38.25623322 205.25675201 C-40.27925624 205.25608549 -42.30228033 205.25690157 -44.32530212 205.25923157 C-47.14172551 205.26176719 -49.95806911 205.25790623 -52.77448654 205.25233078 C-53.60772949 205.25435501 -54.44097244 205.25637924 -55.29946518 205.25846481 C-58.88410972 205.24529954 -62.09427322 205.08994427 -65.54352951 204.12293625 C-65.87352951 204.78293625 -66.20352951 205.44293625 -66.54352951 206.12293625 C-67.24711594 205.96067551 -67.95070236 205.79841476 -68.67560959 205.63123703 C-71.65576021 205.10304485 -74.40529181 204.9935071 -77.43024826 204.99012375 C-79.08443771 204.98819016 -79.08443771 204.98819016 -80.77204514 204.9862175 C-81.91350998 204.99008469 -83.05497482 204.99395187 -84.23102951 204.99793625 C-85.38409592 204.99406906 -86.53716232 204.99020187 -87.72517014 204.9862175 C-88.82409592 204.98750656 -89.9230217 204.98879562 -91.05524826 204.99012375 C-92.06031418 204.99125168 -93.0653801 204.99237961 -94.10090256 204.99354172 C-96.55104983 204.96033273 -96.55104983 204.96033273 -98.54352951 206.12293625 C-100.89293481 205.51533143 -103.22882039 204.85164097 -105.54352951 204.12293625 C-105.87352951 204.78293625 -106.20352951 205.44293625 -106.54352951 206.12293625 C-107.20352951 205.79293625 -107.86352951 205.46293625 -108.54352951 205.12293625 C-110.43781114 204.9935847 -112.33416478 204.89373646 -114.23102951 204.81043625 C-121.1329561 204.27316053 -125.05777537 202.81023802 -129.85602951 197.62293625 C-133.2138586 192.64837464 -133.86673733 188.93793588 -133.95319748 182.94324875 C-133.97227283 182.12038879 -133.99134819 181.29752884 -134.01100159 180.44973373 C-134.07105665 177.71590454 -134.11638367 174.98206258 -134.16071701 172.24793625 C-134.19831769 170.31213914 -134.23623648 168.37634819 -134.27445602 166.4405632 C-134.63767526 146.93982582 -134.69688622 127.43805101 -134.6739006 107.93445969 C-134.66934272 104.0600951 -134.66934272 100.1857774 -134.6739006 96.31141281 C-134.68841169 83.88763546 -134.66084721 71.46490357 -134.5656395 59.04145432 C-134.55062337 57.05932523 -134.53673654 55.07718733 -134.52386093 53.09504318 C-134.48358951 47.05762874 -134.42089288 41.0211748 -134.32645416 34.98435593 C-134.29956719 33.09578721 -134.27918086 31.20711333 -134.26570129 29.31840134 C-134.24536246 26.71090489 -134.20015754 24.1049752 -134.14850998 21.49793625 C-134.14725428 20.35278801 -134.14725428 20.35278801 -134.14597321 19.18450546 C-133.98524534 13.24426855 -132.0494728 9.64686478 -127.91071701 5.478405 C-123.43586534 1.97583785 -121.39787763 0.99907794 -115.75226974 0.91761398 C-114.51484528 0.89767883 -113.27742081 0.87774368 -112.00249863 0.85720444 C-110.61904267 0.84010953 -109.23558409 0.82322557 -107.85212326 0.80653 C-106.39391302 0.7857307 -104.93570689 0.76464061 -103.47750473 0.74328232 C-99.48312497 0.68662726 -95.48868572 0.63737494 -91.49418259 0.59030533 C-88.98473647 0.56048031 -86.47531481 0.52904811 -83.96589279 0.49726486 C-55.97785104 0.14703405 -27.99011 0.01535565 0 0 Z M-119.42061424 15.35136318 C-123.8794705 22.38590076 -121.6920407 35.25054389 -121.68879318 43.2896843 C-121.69179181 44.78569751 -121.69519594 46.28170995 -121.69897079 47.77772141 C-121.70773809 51.80847455 -121.71014566 55.83920642 -121.71078658 59.86996818 C-121.71150061 62.39295592 -121.71364145 64.91593837 -121.7162838 67.43892479 C-121.72550931 76.25327647 -121.72962172 85.0676131 -121.72883224 93.88196945 C-121.72823046 102.08054856 -121.73880924 110.27906209 -121.75457591 118.4776246 C-121.76766505 125.53693947 -121.77301565 132.59623292 -121.77237684 139.65555984 C-121.77212249 143.86317595 -121.77493943 148.07073353 -121.78555489 152.27833748 C-121.79526043 156.23222208 -121.79529829 160.18599242 -121.78803825 164.13988113 C-121.78699585 165.58622086 -121.78933479 167.0325678 -121.79539871 168.47889519 C-121.86444146 178.97379513 -121.86444146 178.97379513 -119.54352951 189.12293625 C-116.72085564 191.94561012 -114.90897323 191.37959545 -110.95200729 191.39036179 C-109.92462222 191.39715846 -109.92462222 191.39715846 -108.87648189 191.40409243 C-106.57028038 191.41680174 -104.26431305 191.4151119 -101.95808029 191.41346359 C-100.30912088 191.41944481 -98.66016428 191.42624941 -97.0112114 191.43381882 C-92.52358617 191.45152816 -88.03603716 191.45617628 -83.54838037 191.45745039 C-79.80574447 191.45934647 -76.06312644 191.4667007 -72.32049739 191.47379458 C-63.49200024 191.49009512 -54.66354389 191.49496204 -45.83503342 191.49354172 C-36.72024698 191.49234005 -27.60569725 191.51344297 -18.49097073 191.54502904 C-10.67266222 191.5711596 -2.85443115 191.58191036 4.96392071 191.5806309 C9.63662026 191.58012028 14.30910959 191.58585796 18.98176575 191.606987 C23.37637103 191.62631513 27.77056443 191.6265313 32.16518402 191.61195374 C33.77929407 191.60985771 35.39342953 191.61461357 37.00749588 191.62667465 C39.20914543 191.64206237 41.4093633 191.63286398 43.61098099 191.61741257 C44.84358595 191.6185021 46.07619091 191.61959164 47.34614754 191.62071419 C50.49480083 191.33906825 50.49480083 191.33906825 52.85256767 189.51861286 C55.00709618 186.30049173 54.95966354 184.16072712 54.96440506 180.29763412 C54.97064502 179.61170746 54.97688498 178.92578079 54.98331404 178.21906847 C54.99926622 175.92113087 54.98663209 173.62425081 54.97404861 171.32630539 C54.97946884 169.67867031 54.98659093 168.03104007 54.99528885 166.38341904 C55.0135386 161.90813564 55.00644756 157.43322072 54.99377251 152.9579308 C54.98365166 148.27573475 54.9930358 143.59357042 54.99931717 138.91137314 C55.00659697 131.04702206 54.99699792 123.18282117 54.97795486 115.31849289 C54.95619303 106.22638245 54.96323111 97.13463088 54.98526049 88.04252917 C55.00341405 80.23773281 55.0059728 72.43304449 54.99550581 64.62823385 C54.98926966 59.96617625 54.98843841 55.30428729 55.00165176 50.64224052 C55.01320876 46.25823744 55.00518745 41.87469678 54.98207474 37.49074364 C54.97678649 35.88190351 54.97830345 34.27302446 54.9871254 32.66419983 C54.99806085 30.46734896 54.98434389 28.27197859 54.96440506 26.07522202 C54.96289696 24.84613648 54.96138885 23.61705095 54.95983505 22.35072041 C54.34323491 18.39682234 53.46181934 16.76278582 50.45647049 14.12293625 C47.26747272 13.37665374 47.26747272 13.37665374 43.61771011 13.50147629 C42.93037232 13.49508747 42.24303452 13.48869864 41.5348683 13.48211622 C39.23201997 13.4668569 36.9308897 13.48733085 34.62810135 13.50770187 C32.97722173 13.50420095 31.32634547 13.49854269 29.67547989 13.49088669 C25.19196361 13.47662587 20.70905966 13.49371197 16.22560191 13.51717186 C11.5371438 13.53725859 6.84871165 13.5314025 2.1602211 13.52906418 C-5.71256758 13.52911777 -13.5851164 13.54888688 -21.45783615 13.58094406 C-30.56585194 13.61785048 -39.67355359 13.62661808 -48.78163439 13.61964655 C-57.53715775 13.6133466 -66.29257314 13.62408557 -75.04807472 13.64361191 C-78.77729388 13.65179656 -82.50645795 13.65449351 -86.23568535 13.65291977 C-90.62456228 13.65204235 -95.01313958 13.6662182 -99.40193748 13.6921463 C-101.01483584 13.69932266 -102.62776605 13.70138468 -104.24067688 13.69802856 C-106.43802979 13.69432774 -108.6345014 13.709011 -110.83175278 13.72852707 C-112.06268189 13.73225578 -113.29361101 13.7359845 -114.56184101 13.7398262 C-117.49513053 13.8962217 -117.49513053 13.8962217 -119.42061424 15.35136318 Z " fill="#2D7BD6" transform="translate(160.54352951049805,29.877063751220703)"/>
<path d="M0 0 C1.06541016 0.04705078 2.13082031 0.09410156 3.22851562 0.14257812 C4.33517578 0.20251953 5.44183594 0.26246094 6.58203125 0.32421875 C8.25942383 0.39672852 8.25942383 0.39672852 9.97070312 0.47070312 C18.25067263 0.86786013 18.25067263 0.86786013 19.39453125 2.01171875 C21.47331625 21.20583361 21.47331625 21.20583361 19.39453125 28.01171875 C16.79652963 30.53755366 15.48135105 31.01171875 11.89453125 31.01171875 C8.60953237 29.6977192 6.82442215 27.53880528 4.39453125 25.01171875 C3.94796173 25.46272949 3.50139221 25.91374023 3.04129028 26.37841797 C-1.59196127 31.05578871 -6.23213697 35.72620579 -10.87646484 40.39257812 C-12.61068838 42.13688247 -14.34311581 43.88297441 -16.07373047 45.63085938 C-18.5562102 48.13749604 -21.0449994 50.63771157 -23.53515625 53.13671875 C-24.31228973 53.9241748 -25.08942322 54.71163086 -25.8901062 55.52294922 C-26.61070221 56.24369629 -27.33129822 56.96444336 -28.07373047 57.70703125 C-28.70882538 58.34656738 -29.34392029 58.98610352 -29.9982605 59.64501953 C-31.60546875 61.01171875 -31.60546875 61.01171875 -33.60546875 61.01171875 C-33.85941406 61.59566406 -34.11335938 62.17960937 -34.375 62.78125 C-37.15694913 67.82408477 -41.76862612 71.2769817 -47.04296875 73.38671875 C-57.17132457 72.32057603 -65.80017725 60.00633829 -72.60546875 53.01171875 C-77.23942697 56.78058202 -81.49060721 60.82572926 -85.6875 65.06640625 C-86.2312326 65.61564758 -86.77496521 66.16488892 -87.33517456 66.73077393 C-89.61335632 69.03673079 -91.8877708 71.34632898 -94.15795898 73.66015625 C-95.83016414 75.36238686 -97.50839256 77.05848791 -99.1875 78.75390625 C-99.70206253 79.28192841 -100.21662506 79.80995056 -100.7467804 80.35397339 C-101.99554361 81.61156769 -103.29625445 82.81718499 -104.60546875 84.01171875 C-105.26546875 84.01171875 -105.92546875 84.01171875 -106.60546875 84.01171875 C-106.83234375 84.60984375 -107.05921875 85.20796875 -107.29296875 85.82421875 C-109.01407632 88.69273137 -110.52877388 89.72379997 -113.60546875 91.01171875 C-116.70025475 90.34855032 -118.21383483 89.39029821 -120.48046875 87.19921875 C-121.9708744 84.30120777 -121.54233708 83.0967238 -120.60546875 80.01171875 C-119.04499817 77.95677185 -119.04499817 77.95677185 -117.00708008 75.92749023 C-116.24571243 75.15996933 -115.48434479 74.39244843 -114.6999054 73.60166931 C-113.45626472 72.37958519 -113.45626472 72.37958519 -112.1875 71.1328125 C-110.91249886 69.85918602 -110.91249886 69.85918602 -109.61174011 68.55982971 C-107.81155565 66.76568645 -106.0065138 64.97640575 -104.19702148 63.19165039 C-101.4355678 60.46658588 -98.69033228 57.72598122 -95.94726562 54.98242188 C-94.19494896 53.23994107 -92.44172298 51.49837413 -90.6875 49.7578125 C-89.86852737 48.94106552 -89.04955475 48.12431854 -88.20576477 47.28282166 C-77.88311897 37.12966381 -77.88311897 37.12966381 -72.2109375 36.8359375 C-67.29303473 38.43971728 -64.51967324 41.2079766 -60.91796875 44.82421875 C-60.26763672 45.45392578 -59.61730469 46.08363281 -58.94726562 46.73242188 C-57.69973561 47.94434451 -56.45985912 49.16421204 -55.22900391 50.39306641 C-53.88955472 51.72848717 -52.52249499 53.03615338 -51.1484375 54.3359375 C-49.60546875 56.01171875 -49.60546875 56.01171875 -49.60546875 58.01171875 C-43.79506909 53.06670951 -38.32430086 47.86538696 -32.94921875 42.453125 C-31.76761169 41.26939552 -31.76761169 41.26939552 -30.56213379 40.06175232 C-28.07419773 37.56826863 -25.58978251 35.07131091 -23.10546875 32.57421875 C-21.40778465 30.87151288 -19.70987017 29.16903668 -18.01171875 27.46679688 C-13.87363595 23.31775463 -9.7384294 19.16586299 -5.60546875 15.01171875 C-6.58338379 13.84346558 -6.58338379 13.84346558 -7.58105469 12.65161133 C-10.51160315 8.83009415 -9.92264906 6.69012827 -9.60546875 2.01171875 C-6.26231557 -0.01337019 -3.87230903 -0.18211749 0 0 Z " fill="#2C7AD7" transform="translate(180.60546875,63.98828125)"/>
<path d="M0 0 C4.12486838 -0.08676908 8.24950384 -0.14031295 12.375 -0.1875 C13.550625 -0.21263672 14.72625 -0.23777344 15.9375 -0.26367188 C17.61972656 -0.27817383 17.61972656 -0.27817383 19.3359375 -0.29296875 C20.37282715 -0.3086792 21.4097168 -0.32438965 22.47802734 -0.34057617 C23.31027832 -0.22818604 24.1425293 -0.1157959 25 0 C27.54792401 3.82188601 27.30274814 6.93952038 27.30639648 11.37109375 C27.31472 12.22502716 27.32304352 13.07896057 27.33161926 13.95877075 C27.35574036 16.78506 27.36449284 19.6111187 27.37109375 22.4375 C27.38005669 24.39900788 27.38917847 26.36051505 27.39845276 28.32202148 C27.4149498 32.43442448 27.42264449 36.54674596 27.42553711 40.65917969 C27.4309294 45.93568475 27.46864125 51.21142732 27.51428127 56.48771667 C27.54397867 60.53856222 27.55125903 64.58922227 27.55226326 68.64016724 C27.5564782 70.58590192 27.5689632 72.53163653 27.58978081 74.4772644 C27.6165512 77.1950548 27.61191391 79.91105265 27.59936523 82.62890625 C27.61419952 83.43627228 27.62903381 84.24363831 27.64431763 85.07546997 C27.61473083 87.31860352 27.61473083 87.31860352 27 91 C23.99044745 93.50403438 21.63446679 94.37991612 17.75 94.36328125 C16.9765625 94.36263672 16.203125 94.36199219 15.40625 94.36132812 C14.6121875 94.34521484 13.818125 94.32910156 13 94.3125 C12.2059375 94.31572266 11.411875 94.31894531 10.59375 94.32226562 C6.20007909 94.28199031 3.07413131 93.78910989 -1 92 C-2.2720995 75.83452849 -2.18759827 59.64052662 -2.18530273 43.43676758 C-2.18519986 39.44693573 -2.19901783 35.45727685 -2.21607494 31.46748638 C-2.22718529 28.36966644 -2.22922249 25.27188911 -2.22869301 22.17405128 C-2.22986817 20.7016927 -2.23426373 19.22933284 -2.24202538 17.75699425 C-2.251836 15.70985813 -2.24894676 13.6631093 -2.24291992 11.6159668 C-2.24434494 10.45558395 -2.24576996 9.29520111 -2.24723816 8.09965515 C-2.00006345 5.00079551 -1.31956378 2.79571855 0 0 Z " fill="#2C7AD7" transform="translate(166,114)"/>
<path d="M0 0 C2.49199261 4.80704632 2.28955768 9.37056733 2.265625 14.6484375 C2.26753845 15.57919098 2.2694519 16.50994446 2.27142334 17.46890259 C2.27278168 19.43402375 2.26910981 21.39915399 2.26074219 23.36425781 C2.25006198 26.35762932 2.26063698 29.35039739 2.2734375 32.34375 C2.27211537 34.25781381 2.26955187 36.17187726 2.265625 38.0859375 C2.26967346 38.97469574 2.27372192 39.86345398 2.27789307 40.77914429 C2.27158875 41.62336945 2.26528442 42.4675946 2.25878906 43.33740234 C2.25640228 44.43729996 2.25640228 44.43729996 2.25396729 45.55941772 C2 48 2 48 0 55 C-8.91 55 -17.82 55 -27 55 C-28.23468725 52.53062549 -28.13350873 50.88472841 -28.14526367 48.12304688 C-28.15164352 47.10859497 -28.15802338 46.09414307 -28.16459656 45.0489502 C-28.16570938 43.94998413 -28.1668222 42.85101807 -28.16796875 41.71875 C-28.17129715 40.59432495 -28.17462555 39.4698999 -28.17805481 38.31140137 C-28.18312411 35.93074961 -28.18546313 33.55009074 -28.18530273 31.16943359 C-28.18749091 27.51518137 -28.20565146 23.86123008 -28.22460938 20.20703125 C-28.22754287 17.89843854 -28.22952796 15.58984438 -28.23046875 13.28125 C-28.23765427 12.18228394 -28.24483978 11.08331787 -28.25224304 9.9510498 C-28.24916641 8.9365979 -28.24608978 7.922146 -28.24291992 6.87695312 C-28.24434494 5.98141724 -28.24576996 5.08588135 -28.24723816 4.16320801 C-28 2 -28 2 -26 0 C-18.24236768 -2.81125208 -8.00874645 -1.28139943 0 0 Z " fill="#2C7BD7" transform="translate(141,152)"/>
<path d="M0 0 C1.01513672 -0.01224609 2.03027344 -0.02449219 3.07617188 -0.03710938 C4.05005859 -0.03904297 5.02394531 -0.04097656 6.02734375 -0.04296875 C7.36720337 -0.04913208 7.36720337 -0.04913208 8.73413086 -0.05541992 C11.0625 0.1875 11.0625 0.1875 14.0625 2.1875 C14.34211076 4.78902912 14.43478329 7.14948722 14.390625 9.75 C14.38875183 10.49709229 14.38687866 11.24418457 14.38494873 12.01391602 C14.37822288 13.59428364 14.36429772 15.17463446 14.34375 16.75488281 C14.31262344 19.17789121 14.30278281 21.60024909 14.296875 24.0234375 C14.28770387 25.55729962 14.27732774 27.09115511 14.265625 28.625 C14.25925018 29.71566772 14.25925018 29.71566772 14.25274658 30.82836914 C14.17970696 35.95308607 14.17970696 35.95308607 13.0625 38.1875 C4.1525 38.1875 -4.7575 38.1875 -13.9375 38.1875 C-15.31209768 32.68910928 -15.12348964 27.36308626 -15.12280273 21.71533203 C-15.12499282 19.69412284 -15.14318141 17.67345678 -15.16210938 15.65234375 C-15.16404297 14.37488281 -15.16597656 13.09742188 -15.16796875 11.78125 C-15.17207764 10.61271484 -15.17618652 9.44417969 -15.18041992 8.24023438 C-14.9452967 5.28547978 -14.57826587 3.62574517 -12.9375 1.1875 C-9.06494304 -0.74877848 -4.2591696 0.00269397 0 0 Z " fill="#2D7BD6" transform="translate(78.9375,168.8125)"/>
<path d="M0 0 C0.33 0 0.66 0 1 0 C1.1167959 21.8007897 1.2049699 43.60152783 1.25906086 65.40256691 C1.28484369 75.5251575 1.31999581 85.64755371 1.37719727 95.77001953 C1.42702972 104.59265853 1.45929044 113.41515674 1.47044247 122.23793256 C1.4769615 126.90970052 1.49228467 131.58106573 1.52865028 136.25270462 C1.5626073 140.65059011 1.57305361 145.04790727 1.56553841 149.44591141 C1.56691309 151.05920501 1.57684769 152.67251776 1.59602737 154.28569794 C1.62096307 156.49134146 1.61490612 158.6948487 1.60127258 160.90054321 C1.60818603 162.75058173 1.60818603 162.75058173 1.61523914 164.63799477 C0.8029858 169.07659402 -0.6531969 171.00130663 -4 174 C-7.27019215 174.73828697 -7.27019215 174.73828697 -11.05513 174.7215271 C-11.75360603 174.72665365 -12.45208206 174.7317802 -13.17172402 174.7370621 C-15.50646164 174.74692634 -17.8385976 174.71398467 -20.1730957 174.68115234 C-21.84868814 174.67945948 -23.52428503 174.68041072 -25.19987488 174.68380737 C-29.74527861 174.68552899 -34.28973245 174.65025256 -38.8349154 174.60836363 C-43.58611756 174.57085708 -48.33734147 174.56733133 -53.08866882 174.56021118 C-62.08436805 174.54156209 -71.07962979 174.49232424 -80.07513636 174.43211424 C-90.31683355 174.36505106 -100.55855163 174.33206059 -110.80041373 174.30194163 C-131.86718666 174.23922524 -152.93356577 174.13368897 -174 174 C-174 173.34 -174 172.68 -174 172 C-173.13178462 171.99761165 -172.26356924 171.99522329 -171.3690443 171.99276257 C-150.26289798 171.93367795 -129.15686647 171.85817002 -108.05084515 171.76428509 C-97.84420998 171.71928123 -87.63761007 171.67987723 -77.4309082 171.65356445 C-68.53681737 171.63062147 -59.64283767 171.5972651 -50.74883491 171.55129844 C-46.03764008 171.52731615 -41.32655566 171.50862026 -36.61530113 171.50238609 C-32.18379405 171.49635778 -27.75256963 171.4764402 -23.32116699 171.44572449 C-21.69215161 171.43690794 -20.06309934 171.43322912 -18.43406105 171.43499184 C-16.21459637 171.43663561 -13.99600266 171.42002373 -11.7766571 171.39872742 C-10.53315837 171.39411845 -9.28965963 171.38950949 -8.00847912 171.38476086 C-5.0189706 171.25463521 -5.0189706 171.25463521 -3.13895893 169.60007954 C-0.69511849 166.16682222 -0.86389194 163.64581539 -0.84178162 159.45748901 C-0.83684364 158.77791047 -0.83190566 158.09833193 -0.82681805 157.3981601 C-0.81140261 155.11033193 -0.80307153 152.8225319 -0.79467773 150.53466797 C-0.78510238 148.89892324 -0.77509251 147.26318101 -0.76467896 145.62744141 C-0.73758662 141.17730445 -0.71660054 136.72715684 -0.69667697 132.27698278 C-0.67484406 127.62979524 -0.64744222 122.98264069 -0.62062073 118.33547974 C-0.57065732 109.5311549 -0.52573205 100.72681179 -0.48259836 91.92245114 C-0.43325713 81.90080825 -0.37832747 71.87919847 -0.32291877 61.85758758 C-0.20904273 41.23842254 -0.10221596 20.61922592 0 0 Z " fill="#286FCB" transform="translate(216,49)"/>
<path d="M0 0 C2.97665294 -0.00206314 5.95329992 -0.0058237 8.92995071 -0.00990677 C13.63624744 -0.01576315 18.34251108 -0.0159132 23.04880905 -0.011446 C24.78470464 -0.01041217 26.52060199 -0.01095817 28.25649643 -0.01320457 C30.63985816 -0.0157613 33.02312776 -0.0119569 35.4064827 -0.00645828 C36.43820272 -0.00949888 36.43820272 -0.00949888 37.49076557 -0.0126009 C41.82131538 0.00624862 45.90370695 0.42770072 50.16502762 1.12293625 C47.33029183 3.95767204 45.47150472 3.38118939 41.49757767 3.39468002 C40.45794194 3.40231028 40.45794194 3.40231028 39.39730346 3.41009468 C37.06347491 3.42481526 34.72985646 3.42529025 32.39598465 3.42591476 C30.72731996 3.43357212 29.05865915 3.44211775 27.3900032 3.45148849 C23.79083833 3.46979862 20.19172575 3.48181714 16.59252167 3.48902702 C10.90356896 3.50048871 5.214732 3.52593497 -0.47416306 3.55334091 C-9.47205128 3.59503426 -18.46994502 3.62742701 -27.46788418 3.65581506 C-43.58008507 3.70673496 -59.69223749 3.76891823 -75.80435669 3.84115547 C-81.46156994 3.8660931 -87.11876803 3.8855184 -92.776016 3.90053761 C-96.29431888 3.9107362 -99.81259824 3.92488275 -103.33088303 3.94001389 C-104.96433203 3.94617389 -106.59778846 3.95063068 -108.23124695 3.95327187 C-110.45872671 3.95707951 -112.68610257 3.96689234 -114.91355515 3.97817612 C-116.16090879 3.98203103 -117.40826244 3.98588594 -118.69341469 3.98985767 C-121.2771901 4.0993082 -123.38331021 4.35501429 -125.83497238 5.12293625 C-125.83497238 5.78293625 -125.83497238 6.44293625 -125.83497238 7.12293625 C-126.49497238 7.12293625 -127.15497238 7.12293625 -127.83497238 7.12293625 C-128.49497238 8.44293625 -129.15497238 9.76293625 -129.83497238 11.12293625 C-130.16497238 10.13293625 -130.49497238 9.14293625 -130.83497238 8.12293625 C-129.71217776 7.14124149 -128.58665766 6.16266327 -127.45997238 5.18543625 C-126.83348801 4.64016281 -126.20700363 4.09488937 -125.56153488 3.5330925 C-122.35824738 0.9168328 -120.12074251 0.97644396 -116.04371262 0.91761398 C-114.80631332 0.89767883 -113.56891403 0.87774368 -112.29401779 0.85720444 C-110.91053641 0.84010914 -109.5270524 0.8232252 -108.14356613 0.80653 C-106.68512701 0.78573047 -105.22669201 0.76464038 -103.76826096 0.74328232 C-99.77377306 0.68663319 -95.77922565 0.63738305 -91.78461456 0.59030533 C-89.27718368 0.56049227 -86.76977755 0.52905805 -84.26237106 0.49726486 C-56.17551193 0.14538315 -28.08893594 0.01532324 0 0 Z " fill="#1B67CA" transform="translate(160.8349723815918,29.877063751220703)"/>
<path d="M0 0 C0.33 0 0.66 0 1 0 C1.33 2.64 1.66 5.28 2 8 C2.33 8 2.66 8 3 8 C3 16.25 3 24.5 3 33 C2.34 33 1.68 33 1 33 C-0.12796398 29.39363767 -0.11416035 26.02855996 -0.09765625 22.265625 C-0.09443359 20.97011719 -0.09121094 19.67460937 -0.08789062 18.33984375 C-0.07953598 16.97656183 -0.07107104 15.61328058 -0.0625 14.25 C-0.05748168 12.87109535 -0.05291935 11.49218896 -0.04882812 10.11328125 C-0.03704093 6.74214341 -0.02058635 3.37109372 0 0 Z " fill="#3781D7" transform="translate(64,174)"/>
<path d="M0 0 C0.495 1.485 0.495 1.485 1 3 C-2.07078764 7.46660021 -4.77782584 10.15687971 -10 12 C-12.72281365 12.22156711 -15.25962787 12.14174339 -18 12 C-18.33 12.66 -18.66 13.32 -19 14 C-19 13.34 -19 12.68 -19 12 C-19.92941406 12.0721875 -20.85882813 12.144375 -21.81640625 12.21875 C-23.05261719 12.3115625 -24.28882813 12.404375 -25.5625 12.5 C-27.38974609 12.63921875 -27.38974609 12.63921875 -29.25390625 12.78125 C-32.86399643 12.99205819 -36.3869211 13.1786442 -40 13 C-40.66 12.34 -41.32 11.68 -42 11 C-41.19369141 10.98541748 -40.38738281 10.97083496 -39.55664062 10.95581055 C-35.87063378 10.88091538 -32.18549163 10.7843904 -28.5 10.6875 C-27.2315625 10.66494141 -25.963125 10.64238281 -24.65625 10.61914062 C-17.74719397 10.42122496 -12.28668249 9.91133272 -6 7 C-5.01 6.67 -4.02 6.34 -3 6 C-1.84478498 3.52869082 -1.84478498 3.52869082 -1 1 C-0.67 0.67 -0.34 0.34 0 0 Z " fill="#1E72CA" transform="translate(225,222)"/>
<path d="M0 0 C0.33 0.99 0.66 1.98 1 3 C0.34 3.66 -0.32 4.32 -1 5 C-1 4.01 -1 3.02 -1 2 C-1.88522339 2.01571045 -1.88522339 2.01571045 -2.78833008 2.03173828 C-5.46301004 2.07332044 -8.13762197 2.0993329 -10.8125 2.125 C-11.74126953 2.14175781 -12.67003906 2.15851563 -13.62695312 2.17578125 C-14.51962891 2.18222656 -15.41230469 2.18867188 -16.33203125 2.1953125 C-17.15421143 2.20578613 -17.9763916 2.21625977 -18.82348633 2.22705078 C-21 2 -21 2 -24 0 C-17.57121075 -3.21439463 -6.98562466 -1.11769994 0 0 Z " fill="#2775D0" transform="translate(141,152)"/>
<path d="M0 0 C0.33 0 0.66 0 1 0 C1.12385849 6.15633856 1.21446257 12.31194747 1.2746582 18.46923828 C1.2997588 20.5624658 1.33384677 22.65560605 1.37719727 24.74853516 C1.43804451 27.76226359 1.4662545 30.77483059 1.48828125 33.7890625 C1.51408768 34.72054108 1.5398941 35.65201965 1.56648254 36.61172485 C1.56842373 41.13737952 1.42241994 44.07174083 -1.53051758 47.63818359 C-2.34544678 48.41758301 -3.16037598 49.19698242 -4 50 C-4.99 49.67 -5.98 49.34 -7 49 C-6.195625 48.21625 -5.39125 47.4325 -4.5625 46.625 C-1.4766319 43.46386682 -0.88370574 42.16538833 -0.79467773 37.91748047 C-0.77473251 37.07675995 -0.75478729 36.23603943 -0.73423767 35.36984253 C-0.71752518 34.46146637 -0.70081268 33.55309021 -0.68359375 32.6171875 C-0.66281265 31.68778351 -0.64203156 30.75837952 -0.62062073 29.80081177 C-0.55512354 26.8256179 -0.49623948 23.85033423 -0.4375 20.875 C-0.39431494 18.86066772 -0.35070066 16.84634459 -0.30664062 14.83203125 C-0.19944197 9.88811337 -0.09817499 4.94410497 0 0 Z " fill="#155CBF" transform="translate(216,173)"/>
<path d="M0 0 C0.66 0 1.32 0 2 0 C2 0.66 2 1.32 2 2 C1.34 2 0.68 2 0 2 C1.36144033 7.19822672 3.46730171 10.09543873 7 14 C4.36 16.97 1.72 19.94 -1 23 C-1.66 22.67 -2.32 22.34 -3 22 C-1 19 1 16 3 13 C2.34 12.505 1.68 12.01 1 11.5 C-1.90306176 7.8711728 -1.37441568 5.56787125 -1 1 C-0.67 0.67 -0.34 0.34 0 0 Z " fill="#2972D1" transform="translate(172,65)"/>
<path d="M0 0 C0.66 0 1.32 0 2 0 C2.79773542 7.83007996 3.14500285 15.19636521 2 23 C1.34 23 0.68 23 0 23 C0 15.41 0 7.82 0 0 Z " fill="#2A71CF" transform="translate(198,69)"/>
<path d="M0 0 C0.66 0 1.32 0 2 0 C2.33 4.29 2.66 8.58 3 13 C9.27 13.33 15.54 13.66 22 14 C22 14.33 22 14.66 22 15 C19.27132267 15.22262638 16.54308042 15.42852324 13.8125 15.625 C13.04357422 15.68945312 12.27464844 15.75390625 11.48242188 15.8203125 C10.35610352 15.89765625 10.35610352 15.89765625 9.20703125 15.9765625 C8.5210083 16.02893066 7.83498535 16.08129883 7.12817383 16.13525391 C5 16 5 16 0 14 C0 9.38 0 4.76 0 0 Z " fill="#1B68C9" transform="translate(165,192)"/>
<path d="M0 0 C0.33 0.99 0.66 1.98 1 3 C-0.375 4.5 -0.375 4.5 -2 6 C-2.66 6 -3.32 6 -4 6 C-4.25910156 6.59167969 -4.51820313 7.18335937 -4.78515625 7.79296875 C-6.08714093 10.15831069 -7.40490423 11.550917 -9.4375 13.3125 C-10.03433594 13.84488281 -10.63117188 14.37726563 -11.24609375 14.92578125 C-11.82488281 15.28027344 -12.40367187 15.63476562 -13 16 C-13.99 15.67 -14.98 15.34 -16 15 C-15.27296875 14.38125 -15.27296875 14.38125 -14.53125 13.75 C-9.45749491 9.37876484 -4.67847866 4.79046352 0 0 Z " fill="#2872CD" transform="translate(151,119)"/>
<path d="M0 0 C0.33 0 0.66 0 1 0 C1.10371911 9.72654773 1.04518445 19.31337984 0 29 C-0.33 29 -0.66 29 -1 29 C-1.19430855 26.3753399 -1.38073238 23.75053235 -1.5625 21.125 C-1.61857422 20.37863281 -1.67464844 19.63226563 -1.73242188 18.86328125 C-2.11328125 13.2265625 -2.11328125 13.2265625 -1 11 C-0.7724985 9.12943209 -0.59037189 7.25314042 -0.4375 5.375 C-0.35371094 4.37210938 -0.26992187 3.36921875 -0.18359375 2.3359375 C-0.12300781 1.56507813 -0.06242188 0.79421875 0 0 Z " fill="#186CC9" transform="translate(166,157)"/>
<path d="M0 0 C0.33 0.99 0.66 1.98 1 3 C-2.09314629 7.49912187 -4.79941304 10.00828585 -10 12 C-11.32 12 -12.64 12 -14 12 C-14 11.34 -14 10.68 -14 10 C-12.72942818 9.52014033 -11.45853152 9.0411407 -10.1875 8.5625 C-9.47980469 8.29566406 -8.77210938 8.02882812 -8.04296875 7.75390625 C-6.37327604 7.13774814 -4.68842296 6.56280765 -3 6 C-1.84478498 3.52869082 -1.84478498 3.52869082 -1 1 C-0.67 0.67 -0.34 0.34 0 0 Z " fill="#2E74CB" transform="translate(225,222)"/>
<path d="M0 0 C0.66 0 1.32 0 2 0 C0.46781315 3.63061667 -1.7183144 5.9863773 -4.5 8.75 C-5.69109375 9.94882813 -5.69109375 9.94882813 -6.90625 11.171875 C-9 13 -9 13 -11 13 C-9.40907948 8.86360664 -6.39525082 5.76786752 -3 3 C-2.34 3 -1.68 3 -1 3 C-0.67 2.01 -0.34 1.02 0 0 Z " fill="#2B74D0" transform="translate(169,101)"/>
<path d="M0 0 C2.64 0 5.28 0 8 0 C8 0.66 8 1.32 8 2 C8.66 2.33 9.32 2.66 10 3 C3.73 3 -2.54 3 -9 3 C-9 2.67 -9 2.34 -9 2 C-6.03 2 -3.06 2 0 2 C0 1.34 0 0.68 0 0 Z " fill="#1B7AD2" transform="translate(115,30)"/>
<path d="M0 0 C0.66 0.33 1.32 0.66 2 1 C2.05416188 2.60379341 2.09286638 4.20811406 2.125 5.8125 C2.14820313 6.70582031 2.17140625 7.59914062 2.1953125 8.51953125 C2 11 2 11 0 14 C-0.19456705 12.04235617 -0.38044247 10.08384679 -0.5625 8.125 C-0.66691406 7.03445312 -0.77132812 5.94390625 -0.87890625 4.8203125 C-1 2 -1 2 0 0 Z " fill="#1B85D5" transform="translate(141,155)"/>
<path d="M0 0 C-0.66 0.66 -1.32 1.32 -2 2 C-5.2578125 1.9765625 -5.2578125 1.9765625 -9.125 1.625 C-10.40632812 1.51414063 -11.68765625 1.40328125 -13.0078125 1.2890625 C-13.99523437 1.19367187 -14.98265625 1.09828125 -16 1 C-16 0.67 -16 0.34 -16 0 C-10.31302429 -0.91397824 -5.68697571 -0.91397824 0 0 Z " fill="#1669C8" transform="translate(211,31)"/>
<path d="M0 0 C0.8125 1.625 0.8125 1.625 1 4 C-0.46818136 6.24609835 -2.15852858 8.02378677 -4 10 C-4.99 9.67 -5.98 9.34 -7 9 C-6.21625 8.2575 -5.4325 7.515 -4.625 6.75 C-2.43495469 4.45566682 -1.17268614 2.87841142 0 0 Z " fill="#216CCA" transform="translate(216,213)"/>
<path d="M0 0 C2.33528415 0.17298401 3.69177582 0.70225369 5.37890625 2.33203125 C9 6.57211538 9 6.57211538 9 9 C8.34 9 7.68 9 7 9 C5.78125 7.5390625 5.78125 7.5390625 4.5 5.625 C3.07753774 3.51732726 1.80845027 1.80845027 0 0 Z " fill="#286EC7" transform="translate(218,34)"/>
<path d="M0 0 C-1.28519565 2.86697492 -2.57129254 4.97607712 -5 7 C-5.66 7 -6.32 7 -7 7 C-3.86206897 0 -3.86206897 0 0 0 Z " fill="#2671CD" transform="translate(181,91)"/>
<path d="M0 0 C1.093125 0.226875 2.18625 0.45375 3.3125 0.6875 C-0.3316774 3.1169516 -2.39991272 2.84929575 -6.6875 2.6875 C-4.58035839 -0.41123767 -3.86755884 -0.32775922 0 0 Z " fill="#3B7DD6" transform="translate(108.6875,101.3125)"/>
<path d="M0 0 C1.5 1.375 1.5 1.375 3 3 C3 3.66 3 4.32 3 5 C4.32 5.66 5.64 6.32 7 7 C6.01 7.33 5.02 7.66 4 8 C0 3.375 0 3.375 0 0 Z " fill="#2E72CB" transform="translate(29,222)"/>
<path d="M0 0 C0.66 0 1.32 0 2 0 C1.67 0.66 1.34 1.32 1 2 C0.67 1.34 0.34 0.68 0 0 Z " fill="#00FFFF" transform="translate(163,206)"/>
<path d="" fill="#00FFFF" transform="translate(0,0)"/>
<path d="M0 0 C2 1 2 1 2 1 Z " fill="#3FBFFF" transform="translate(192,29)"/>
<path d="" fill="#00FFFF" transform="translate(0,0)"/>
<path d="" fill="#00FFFF" transform="translate(0,0)"/>
<path d="" fill="#7F7FFF" transform="translate(0,0)"/>
<path d="" fill="#7F7FFF" transform="translate(0,0)"/>
<path d="" fill="#00FFFF" transform="translate(0,0)"/>
<path d="" fill="#00FFFF" transform="translate(0,0)"/>
<path d="" fill="#00FFFF" transform="translate(0,0)"/>
<path d="" fill="#00FFFF" transform="translate(0,0)"/>
<path d="" fill="#00FFFF" transform="translate(0,0)"/>
<path d="" fill="#7F7FFF" transform="translate(0,0)"/>
<path d="" fill="#7F7FFF" transform="translate(0,0)"/>
<path d="" fill="#00FFFF" transform="translate(0,0)"/>
<path d="" fill="#00FFFF" transform="translate(0,0)"/>
<path d="" fill="#00FFFF" transform="translate(0,0)"/>
<path d="" fill="#00FFFF" transform="translate(0,0)"/>
<path d="" fill="#00FFFF" transform="translate(0,0)"/>
<path d="" fill="#00FFFF" transform="translate(0,0)"/>
<path d="" fill="#00FFFF" transform="translate(0,0)"/>
<path d="" fill="#7F7FFF" transform="translate(0,0)"/>
<path d="" fill="#00FFFF" transform="translate(0,0)"/>
<path d="" fill="#00FFFF" transform="translate(0,0)"/>
<path d="" fill="#00FFFF" transform="translate(0,0)"/>
<path d="" fill="#7F7FFF" transform="translate(0,0)"/>
<path d="" fill="#00FFFF" transform="translate(0,0)"/>
<path d="" fill="#55AAFF" transform="translate(0,0)"/>
<path d="" fill="#00FFFF" transform="translate(0,0)"/>
<path d="" fill="#00FFFF" transform="translate(0,0)"/>
<path d="" fill="#55AAFF" transform="translate(0,0)"/>
<path d="" fill="#00FFFF" transform="translate(0,0)"/>
<path d="" fill="#00FFFF" transform="translate(0,0)"/>
<path d="" fill="#00FFFF" transform="translate(0,0)"/>
<path d="" fill="#7F7FFF" transform="translate(0,0)"/>
<path d="" fill="#00FFFF" transform="translate(0,0)"/>
<path d="" fill="#00FFFF" transform="translate(0,0)"/>
<path d="" fill="#00FFFF" transform="translate(0,0)"/>
<path d="" fill="#7F7FFF" transform="translate(0,0)"/>
</svg>
